<svg width="96" height="96" viewBox="0 0 96 96" fill="none" xmlns="http://www.w3.org/2000/svg">
<g clip-path="url(#clip0_75_5775)">
<circle cx="47.9999" cy="47.9999" r="48" transform="rotate(-45 47.9999 47.9999)" fill="black" fill-opacity="0.2"/>
<rect x="-19.8823" y="47.9999" width="49" height="96" transform="rotate(-45 -19.8823 47.9999)" fill="black" fill-opacity="0.2"/>
<g clip-path="url(#clip1_75_5775)">
<path d="M50.83 74.4608L79.0299 74.409C78.9946 56.8428 70.4309 54.0998 63.4094 51.5028C62.6455 51.2202 62.0876 50.5613 61.9218 49.7639L58.3739 32.7051C58.1293 31.5288 57.0463 30.7265 55.845 30.7331C47.3906 30.7793 42.7404 27.2329 40.4727 23.7189C39.4004 22.0573 36.7326 21.2883 35.3368 22.6891L17.1625 40.9284L50.83 74.4608Z" fill="#CCBBF9"/>
<mask id="mask0_75_5775" style="mask-type:alpha" maskUnits="userSpaceOnUse" x="17" y="21" width="63" height="54">
<path d="M50.8304 74.4609L79.0304 74.409C78.9951 56.8429 70.4314 54.0999 63.4099 51.5028C62.646 51.2203 62.0881 50.5613 61.9223 49.764L58.3744 32.7051C58.1298 31.5289 57.0468 30.7266 55.8454 30.7332C47.3911 30.7794 42.7409 27.233 40.4732 23.7189C39.4009 22.0574 36.7331 21.2884 35.3373 22.6891L17.163 40.9284L50.8304 74.4609Z" fill="#D9D9D9"/>
</mask>
<g mask="url(#mask0_75_5775)">
<rect x="44.3999" y="61.2001" width="34.8" height="8.4" fill="#7A50F1"/>
<path d="M43.9578 47.3528L44.3995 47.1904L40.0328 42.8412L40.6982 42.5962C41.315 42.369 42.0075 42.5205 42.4732 42.9843L47.7431 48.233L43.9469 49.6314L39.5783 45.2803L39.1251 45.4466L44.2612 50.5621L42.5844 51.1796L35.7815 44.404L39.5892 43.0017L43.9578 47.3528Z" fill="#7A50F1"/>
<path d="M52.2249 52.7014L50.5859 53.3043L48.4103 51.1375L47.9493 51.3134L50.0367 53.3925L48.3977 53.9954L46.3054 51.9115L45.8261 52.0885L49.4082 55.6563L48.7186 55.9092C48.1023 56.1352 47.4109 55.9835 46.9458 55.5203L42.47 51.0624L48.3961 48.8821L52.2249 52.7014Z" fill="#7A50F1"/>
<path d="M49.5 56.713C48.8879 56.9292 48.2061 56.7754 47.7462 56.3173L46.8512 55.4259L53.4875 53.082C54.0995 52.8658 54.7813 53.0197 55.2412 53.4777L56.1362 54.3692L49.5 56.713Z" fill="#7A50F1"/>
<path d="M57.1618 55.3904L55.2921 53.5281C54.8309 53.0688 54.1468 52.9155 53.5337 53.134L52.4391 53.5243L54.3093 55.387C54.7707 55.8466 55.4553 55.9998 56.0686 55.7808L57.1618 55.3904Z" fill="#7A50F1"/>
<path d="M22.0913 34.2512L56.1005 68.124L50.3253 73.9176L16.3161 40.0448L22.0913 34.2512Z" fill="#906CF3"/>
<path d="M34.3008 67.4052L82.3007 67.3088L82.3127 74.5088L34.3128 74.6052L34.3008 67.4052Z" fill="#906CF3"/>
<path d="M30.2188 26.0913L32.2653 28.1297C36.7699 32.6162 36.7845 39.9048 32.298 44.4094L22.0953 34.2475L30.2188 26.0913Z" fill="#7A50F1"/>
<path d="M59.6479 36.1328L60.3681 39.6601L53.9015 40.9803C52.9274 41.1791 51.9766 40.5507 51.7778 39.5767C51.5789 38.6027 52.2073 37.6519 53.1813 37.453L59.6479 36.1328Z" fill="#7A50F1"/>
<path d="M61.0879 43.1873L61.808 46.7146L55.3414 48.0348C54.3674 48.2337 53.4166 47.6053 53.2177 46.6312C53.0189 45.6572 53.6473 44.7064 54.6213 44.5076L61.0879 43.1873Z" fill="#7A50F1"/>
</g>
<g clip-path="url(#clip2_75_5775)">
<path d="M51.8238 74.459L76.6295 74.4134C77.9551 74.4109 79.0354 73.3223 78.9679 71.9984C78.1824 56.5819 70.0965 53.9761 63.4094 51.5028C62.6455 51.2202 62.0876 50.5613 61.9218 49.7639L58.3739 32.7051C58.1293 31.5288 57.0463 30.7265 55.845 30.7331C47.3906 30.7793 42.7404 27.2329 40.4727 23.7189C39.4004 22.0573 36.7326 21.2883 35.3368 22.6891L18.8569 39.2279C17.9212 40.167 17.9241 41.6869 18.8634 42.6224L50.1258 73.7594C50.5767 74.2085 51.1875 74.4601 51.8238 74.459Z" fill="#CCBBF9"/>
<path d="M51.8238 74.459L76.6295 74.4134C77.9551 74.4109 79.0354 73.3223 78.9679 71.9984C78.1824 56.5819 70.0965 53.9761 63.4094 51.5028C62.6455 51.2202 62.0876 50.5613 61.9218 49.7639L58.3739 32.7051C58.1293 31.5288 57.0463 30.7265 55.845 30.7331C47.3906 30.7793 42.7404 27.2329 40.4727 23.7189C39.4004 22.0573 36.7326 21.2883 35.3368 22.6891L18.8569 39.2279C17.9212 40.167 17.9241 41.6869 18.8634 42.6224L50.1258 73.7594C50.5767 74.2085 51.1875 74.4601 51.8238 74.459Z" fill="white" fill-opacity="0.2"/>
<mask id="mask1_75_5775" style="mask-type:alpha" maskUnits="userSpaceOnUse" x="18" y="21" width="62" height="54">
<path d="M51.8243 74.459L79.0304 74.409C78.9951 56.8429 70.4314 54.0999 63.4099 51.5028C62.646 51.2203 62.0881 50.5613 61.9223 49.764L58.3744 32.7051C58.1298 31.5289 57.0468 30.7266 55.8454 30.7332C47.3911 30.7794 42.7409 27.233 40.4732 23.7189C39.4009 22.0574 36.7331 21.2884 35.3373 22.6891L18.8574 39.228C17.9217 40.1671 17.9246 41.6869 18.8639 42.6225L50.1263 73.7595C50.5772 74.2086 51.1879 74.4602 51.8243 74.459Z" fill="#D9D9D9"/>
</mask>
<g mask="url(#mask1_75_5775)">
<rect x="44.3999" y="61.2001" width="34.8" height="8.4" fill="#7A50F1"/>
<rect x="44.3999" y="61.2001" width="34.8" height="8.4" fill="white" fill-opacity="0.2"/>
<path d="M49.5 56.713C48.8879 56.9292 48.2061 56.7754 47.7462 56.3173L46.8512 55.4259L53.4875 53.082C54.0995 52.8658 54.7813 53.0197 55.2412 53.4777L56.1362 54.3692L49.5 56.713Z" fill="#7A50F1"/>
<path d="M49.5 56.713C48.8879 56.9292 48.2061 56.7754 47.7462 56.3173L46.8512 55.4259L53.4875 53.082C54.0995 52.8658 54.7813 53.0197 55.2412 53.4777L56.1362 54.3692L49.5 56.713Z" fill="white" fill-opacity="0.2"/>
<path d="M57.1618 55.3903L55.2921 53.5281C54.8309 53.0688 54.1468 52.9154 53.5337 53.134L52.4391 53.5242L54.3093 55.3869C54.7707 55.8465 55.4553 55.9997 56.0686 55.7807L57.1618 55.3903Z" fill="#7A50F1"/>
<path d="M57.1618 55.3903L55.2921 53.5281C54.8309 53.0688 54.1468 52.9154 53.5337 53.134L52.4391 53.5242L54.3093 55.3869C54.7707 55.8465 55.4553 55.9997 56.0686 55.7807L57.1618 55.3903Z" fill="white" fill-opacity="0.2"/>
<path d="M21.7505 34.5937L55.7597 68.4665L50.3256 73.9177L16.3164 40.0448L21.7505 34.5937Z" fill="#906CF3"/>
<path d="M21.7505 34.5937L55.7597 68.4665L50.3256 73.9177L16.3164 40.0448L21.7505 34.5937Z" fill="white" fill-opacity="0.2"/>
<path d="M34.3003 67.2613L82.3002 67.1649L82.3125 74.5088L34.3126 74.6053L34.3003 67.2613Z" fill="#906CF3"/>
<path d="M34.3003 67.2613L82.3002 67.1649L82.3125 74.5088L34.3126 74.6053L34.3003 67.2613Z" fill="white" fill-opacity="0.2"/>
<path d="M59.6479 36.1328L60.3681 39.6601L53.9015 40.9803C52.9274 41.1791 51.9766 40.5507 51.7778 39.5767C51.5789 38.6027 52.2073 37.6519 53.1813 37.453L59.6479 36.1328Z" fill="#7A50F1"/>
<path d="M59.6479 36.1328L60.3681 39.6601L53.9015 40.9803C52.9274 41.1791 51.9766 40.5507 51.7778 39.5767C51.5789 38.6027 52.2073 37.6519 53.1813 37.453L59.6479 36.1328Z" fill="white" fill-opacity="0.2"/>
<path d="M61.0879 43.1873L61.808 46.7146L55.3414 48.0348C54.3674 48.2337 53.4166 47.6053 53.2177 46.6312C53.0189 45.6572 53.6473 44.7064 54.6213 44.5076L61.0879 43.1873Z" fill="#7A50F1"/>
<path d="M61.0879 43.1873L61.808 46.7146L55.3414 48.0348C54.3674 48.2337 53.4166 47.6053 53.2177 46.6312C53.0189 45.6572 53.6473 44.7064 54.6213 44.5076L61.0879 43.1873Z" fill="white" fill-opacity="0.2"/>
</g>
</g>
<path d="M25.1997 69.6C25.1997 68.2745 26.2742 67.2 27.5997 67.2H39.5997C40.9252 67.2 41.9997 68.2745 41.9997 69.6C41.9997 70.9255 40.9252 72 39.5997 72H27.5997C26.2742 72 25.1997 70.9255 25.1997 69.6Z" fill="#906CF3"/>
<path d="M19.2002 62.4C19.2002 61.0745 20.2747 60 21.6002 60H31.2002C32.5257 60 33.6002 61.0745 33.6002 62.4C33.6002 63.7255 32.5257 64.8 31.2002 64.8H21.6002C20.2747 64.8 19.2002 63.7255 19.2002 62.4Z" fill="#7A50F1"/>
</g>
</g>
<defs>
<clipPath id="clip0_75_5775">
<rect width="96" height="96" rx="48" fill="white"/>
</clipPath>
<clipPath id="clip1_75_5775">
<rect width="72" height="72" fill="white" transform="translate(12 12)"/>
</clipPath>
<clipPath id="clip2_75_5775">
<rect width="60" height="72" fill="white" transform="translate(55.2002 12)"/>
</clipPath>
</defs>
</svg>
