<svg width="96" height="96" viewBox="0 0 96 96" fill="none" xmlns="http://www.w3.org/2000/svg">
<g clip-path="url(#clip0_75_5897)">
<circle cx="47.9999" cy="47.9999" r="48" transform="rotate(-45 47.9999 47.9999)" fill="black" fill-opacity="0.2"/>
<rect x="-19.8823" y="47.9999" width="49" height="96" transform="rotate(-45 -19.8823 47.9999)" fill="black" fill-opacity="0.2"/>
<path d="M69.9396 41.1138C71.2706 39.5292 72.1848 37.6373 72.5993 35.6099L73.5316 31.0494C73.6536 30.4526 73.2514 29.8751 72.6494 29.7825L72.0895 29.6964C63.9537 28.4447 55.8717 32.2525 51.657 39.3232L53.4639 43.6257L55.3704 44.4743C60.4329 46.7276 66.3756 45.3569 69.9396 41.1138Z" fill="#71A253"/>
<path d="M35.3392 36.3137C34.0082 34.7292 33.094 32.8373 32.6796 30.8099L31.7473 26.2494C31.6253 25.6526 32.0274 25.0751 32.6294 24.9825L33.1893 24.8963C41.3251 23.6447 49.4071 27.4525 53.6218 34.5231L51.815 38.8257L49.9084 39.6743C44.8459 41.9276 38.9032 40.5569 35.3392 36.3137Z" fill="#8BBC6C"/>
<path d="M50.3999 27C50.3999 26.0059 51.2058 25.2 52.1999 25.2C53.194 25.2 53.9999 26.0059 53.9999 27V48H50.3999V27Z" fill="#65904A"/>
<path d="M36 62.4C36 53.7844 42.9844 46.8 51.6 46.8C60.2156 46.8 67.2 53.7844 67.2 62.4V68.4H36V62.4Z" fill="#82471B"/>
<path d="M16.1997 72V58.2C16.1997 56.8745 17.2742 55.8 18.5997 55.8H24.7577C25.0498 55.8 25.3394 55.7457 25.6117 55.6398L30.9096 53.5795C34.0028 52.3766 37.5147 53.115 39.8616 55.4619C40.0781 55.6784 40.3717 55.8 40.6779 55.8H52.1997C54.1879 55.8 55.7997 57.4118 55.7997 59.4C55.7997 61.3882 54.1879 63 52.1997 63H41.9997C41.0056 63 40.1997 63.8059 40.1997 64.8C40.1997 65.7941 41.0056 66.6 41.9997 66.6H56.938C58.1357 66.6 59.2901 66.1523 60.1745 65.3448L70.3391 56.0641C71.6039 54.9093 73.5532 54.9535 74.7643 56.1646C75.9219 57.3222 76.0204 59.1664 74.9927 60.4407L63.2407 75.0132C62.3294 76.1431 60.9558 76.8 59.5043 76.8H39.414C39.1383 76.8 38.8632 76.7763 38.5916 76.729L25.6079 74.471C25.3363 74.4238 25.0611 74.4 24.7854 74.4H18.5997C17.2742 74.4 16.1997 73.3255 16.1997 72Z" fill="#FFE0C3"/>
<path d="M15.5996 54H23.9996C25.3251 54 26.3996 55.0745 26.3996 56.4V73.2C26.3996 74.5255 25.3251 75.6 23.9996 75.6H15.5996V54Z" fill="#608DFF"/>
<g clip-path="url(#clip1_75_5897)">
<path d="M69.9396 41.1137C71.2706 39.5292 72.1848 37.6373 72.5993 35.6099L73.5316 31.0494C73.6536 30.4526 73.2514 29.8751 72.6494 29.7825L72.0895 29.6963C63.9537 28.4447 55.8717 32.2525 51.657 39.3231L53.4639 43.6257L55.3704 44.4743C60.4329 46.7276 66.3756 45.3568 69.9396 41.1137Z" fill="#71A253"/>
<path d="M69.9396 41.1137C71.2706 39.5292 72.1848 37.6373 72.5993 35.6099L73.5316 31.0494C73.6536 30.4526 73.2514 29.8751 72.6494 29.7825L72.0895 29.6963C63.9537 28.4447 55.8717 32.2525 51.657 39.3231L53.4639 43.6257L55.3704 44.4743C60.4329 46.7276 66.3756 45.3568 69.9396 41.1137Z" fill="white" fill-opacity="0.2"/>
<path d="M35.3392 36.3137C34.0082 34.7291 33.094 32.8373 32.6796 30.8098L31.7473 26.2493C31.6253 25.6525 32.0274 25.0751 32.6294 24.9824L33.1893 24.8963C41.3251 23.6446 49.4071 27.4525 53.6218 34.5231L51.815 38.8256L49.9084 39.6742C44.8459 41.9275 38.9032 40.5568 35.3392 36.3137Z" fill="#8BBC6C"/>
<path d="M35.3392 36.3137C34.0082 34.7291 33.094 32.8373 32.6796 30.8098L31.7473 26.2493C31.6253 25.6525 32.0274 25.0751 32.6294 24.9824L33.1893 24.8963C41.3251 23.6446 49.4071 27.4525 53.6218 34.5231L51.815 38.8256L49.9084 39.6742C44.8459 41.9275 38.9032 40.5568 35.3392 36.3137Z" fill="white" fill-opacity="0.2"/>
<path d="M50.3999 27C50.3999 26.0059 51.2058 25.2 52.1999 25.2C53.194 25.2 53.9999 26.0059 53.9999 27V48H50.3999V27Z" fill="#65904A"/>
<path d="M50.3999 27C50.3999 26.0059 51.2058 25.2 52.1999 25.2C53.194 25.2 53.9999 26.0059 53.9999 27V48H50.3999V27Z" fill="white" fill-opacity="0.2"/>
<path d="M36 62.4C36 53.7843 42.9844 46.8 51.6 46.8C60.2156 46.8 67.2 53.7843 67.2 62.4V68.4H36V62.4Z" fill="#82471B"/>
<path d="M36 62.4C36 53.7843 42.9844 46.8 51.6 46.8C60.2156 46.8 67.2 53.7843 67.2 62.4V68.4H36V62.4Z" fill="white" fill-opacity="0.2"/>
<path d="M16.1997 72V58.2C16.1997 56.8745 17.2742 55.8 18.5997 55.8H24.7577C25.0498 55.8 25.3394 55.7457 25.6117 55.6398L30.9096 53.5795C34.0028 52.3765 37.5147 53.115 39.8616 55.4618C40.0781 55.6784 40.3717 55.8 40.6779 55.8H52.1997C54.1879 55.8 55.7997 57.4118 55.7997 59.4C55.7997 61.3882 54.1879 63 52.1997 63H41.9997C41.0056 63 40.1997 63.8059 40.1997 64.8C40.1997 65.7941 41.0056 66.6 41.9997 66.6H56.938C58.1357 66.6 59.2901 66.1523 60.1745 65.3447L70.3391 56.064C71.6039 54.9092 73.5532 54.9535 74.7643 56.1645C75.9219 57.3222 76.0204 59.1663 74.9927 60.4407L63.2407 75.0132C62.3294 76.1431 60.9558 76.8 59.5043 76.8H39.414C39.1383 76.8 38.8632 76.7762 38.5916 76.729L25.6079 74.471C25.3363 74.4237 25.0611 74.4 24.7854 74.4H18.5997C17.2742 74.4 16.1997 73.3255 16.1997 72Z" fill="#FFE0C3"/>
<path d="M16.1997 72V58.2C16.1997 56.8745 17.2742 55.8 18.5997 55.8H24.7577C25.0498 55.8 25.3394 55.7457 25.6117 55.6398L30.9096 53.5795C34.0028 52.3765 37.5147 53.115 39.8616 55.4618C40.0781 55.6784 40.3717 55.8 40.6779 55.8H52.1997C54.1879 55.8 55.7997 57.4118 55.7997 59.4C55.7997 61.3882 54.1879 63 52.1997 63H41.9997C41.0056 63 40.1997 63.8059 40.1997 64.8C40.1997 65.7941 41.0056 66.6 41.9997 66.6H56.938C58.1357 66.6 59.2901 66.1523 60.1745 65.3447L70.3391 56.064C71.6039 54.9092 73.5532 54.9535 74.7643 56.1645C75.9219 57.3222 76.0204 59.1663 74.9927 60.4407L63.2407 75.0132C62.3294 76.1431 60.9558 76.8 59.5043 76.8H39.414C39.1383 76.8 38.8632 76.7762 38.5916 76.729L25.6079 74.471C25.3363 74.4237 25.0611 74.4 24.7854 74.4H18.5997C17.2742 74.4 16.1997 73.3255 16.1997 72Z" fill="white" fill-opacity="0.2"/>
</g>
</g>
<defs>
<clipPath id="clip0_75_5897">
<rect width="96" height="96" rx="48" fill="white"/>
</clipPath>
<clipPath id="clip1_75_5897">
<rect width="26.4" height="57.6" fill="white" transform="translate(52.1997 19.2)"/>
</clipPath>
</defs>
</svg>
