<svg width="96" height="96" viewBox="0 0 96 96" fill="none" xmlns="http://www.w3.org/2000/svg">
<g clip-path="url(#clip0_75_5857)">
<circle cx="47.9999" cy="47.9999" r="48" transform="rotate(-45 47.9999 47.9999)" fill="black" fill-opacity="0.2"/>
<rect x="-19.8823" y="47.9999" width="49" height="96" transform="rotate(-45 -19.8823 47.9999)" fill="black" fill-opacity="0.2"/>
<path d="M16.8003 26.4H48.0003V69.6C48.0003 72.251 45.8513 74.4 43.2003 74.4H16.8003V26.4Z" fill="#608DFF"/>
<path d="M16.8003 26.4H48.0003V69.6C48.0003 72.251 45.8513 74.4 43.2003 74.4H16.8003V26.4Z" fill="white" fill-opacity="0.2"/>
<path d="M20.3999 21.6H43.1999C45.8509 21.6 47.9999 23.749 47.9999 26.4V62.4C47.9999 65.051 45.8509 67.2 43.1999 67.2H20.3999V21.6Z" fill="#FFEAD7"/>
<path d="M20.3999 21.6H43.1999C45.8509 21.6 47.9999 23.749 47.9999 26.4V62.4C47.9999 65.051 45.8509 67.2 43.1999 67.2H20.3999V21.6Z" fill="white" fill-opacity="0.2"/>
<path d="M48 26.4H79.2V74.4H52.8C50.149 74.4 48 72.251 48 69.6V26.4Z" fill="#608DFF"/>
<path d="M48 26.4C48 23.749 50.149 21.6 52.8 21.6H75.6V67.2H52.8C50.149 67.2 48 65.051 48 62.4V26.4Z" fill="#FFEAD7"/>
<rect x="24" y="27.6" width="20.4" height="3.6" rx="1.8" fill="#FFEAD7"/>
<rect x="24" y="27.6" width="20.4" height="3.6" rx="1.8" fill="black" fill-opacity="0.2"/>
<rect x="24" y="27.6" width="20.4" height="3.6" rx="1.8" fill="white" fill-opacity="0.4"/>
<rect x="51.5996" y="27.6" width="20.4" height="3.6" rx="1.8" fill="#FFEAD7"/>
<rect x="51.5996" y="27.6" width="20.4" height="3.6" rx="1.8" fill="black" fill-opacity="0.2"/>
<rect x="24" y="34.8" width="20.4" height="3.6" rx="1.8" fill="#FFEAD7"/>
<rect x="24" y="34.8" width="20.4" height="3.6" rx="1.8" fill="black" fill-opacity="0.2"/>
<rect x="24" y="34.8" width="20.4" height="3.6" rx="1.8" fill="white" fill-opacity="0.4"/>
<rect x="51.5996" y="34.8" width="20.4" height="3.6" rx="1.8" fill="#FFEAD7"/>
<rect x="51.5996" y="34.8" width="20.4" height="3.6" rx="1.8" fill="black" fill-opacity="0.2"/>
<rect x="24" y="42" width="20.4" height="3.6" rx="1.8" fill="#FFEAD7"/>
<rect x="24" y="42" width="20.4" height="3.6" rx="1.8" fill="black" fill-opacity="0.2"/>
<rect x="24" y="42" width="20.4" height="3.6" rx="1.8" fill="white" fill-opacity="0.4"/>
<rect x="51.5996" y="42" width="20.4" height="3.6" rx="1.8" fill="#FFEAD7"/>
<rect x="51.5996" y="42" width="20.4" height="3.6" rx="1.8" fill="black" fill-opacity="0.2"/>
<rect x="24" y="49.2" width="20.4" height="3.6" rx="1.8" fill="#FFEAD7"/>
<rect x="24" y="49.2" width="20.4" height="3.6" rx="1.8" fill="black" fill-opacity="0.2"/>
<rect x="24" y="49.2" width="20.4" height="3.6" rx="1.8" fill="white" fill-opacity="0.4"/>
<rect x="24" y="56.4" width="20.4" height="3.6" rx="1.8" fill="#FFEAD7"/>
<rect x="24" y="56.4" width="20.4" height="3.6" rx="1.8" fill="black" fill-opacity="0.2"/>
<rect x="24" y="56.4" width="20.4" height="3.6" rx="1.8" fill="white" fill-opacity="0.4"/>
<rect x="51.5996" y="49.2" width="20.4" height="3.6" rx="1.8" fill="#FFEAD7"/>
<rect x="51.5996" y="49.2" width="20.4" height="3.6" rx="1.8" fill="black" fill-opacity="0.2"/>
<rect x="51.5996" y="56.4" width="20.4" height="3.6" rx="1.8" fill="#FFEAD7"/>
<rect x="51.5996" y="56.4" width="20.4" height="3.6" rx="1.8" fill="black" fill-opacity="0.2"/>
<path d="M62.3145 50.6985L54.0006 45.8985L69.6006 18.8785C70.2634 17.7306 71.7312 17.3373 72.8791 18L77.036 20.4C78.1839 21.0628 78.5772 22.5306 77.9145 23.6785L62.3145 50.6985Z" fill="#FF8B36"/>
<path d="M76.1143 26.7962L67.8004 21.9962L70.8004 16.8L79.1143 21.6L76.1143 26.7962Z" fill="#FF8B36"/>
<path d="M76.1143 26.7962L67.8004 21.9962L70.8004 16.8L79.1143 21.6L76.1143 26.7962Z" fill="black" fill-opacity="0.2"/>
<path d="M55.3601 55.2899C54.5349 55.8348 53.4418 55.2037 53.501 54.2166L54.0003 45.8985L62.3142 50.6985L55.3601 55.2899Z" fill="#FF8B36"/>
<path d="M55.3601 55.2899C54.5349 55.8348 53.4418 55.2037 53.501 54.2166L54.0003 45.8985L62.3142 50.6985L55.3601 55.2899Z" fill="black" fill-opacity="0.2"/>
<path d="M55.3601 55.2899C54.5349 55.8348 53.4418 55.2037 53.501 54.2166L54.0003 45.8985L62.3142 50.6985L55.3601 55.2899Z" fill="black" fill-opacity="0.2"/>
<path d="M55.3601 55.2899C54.5349 55.8348 53.4418 55.2037 53.501 54.2166L54.0003 45.8985L62.3142 50.6985L55.3601 55.2899Z" fill="black" fill-opacity="0.2"/>
</g>
<defs>
<clipPath id="clip0_75_5857">
<rect width="96" height="96" rx="48" fill="white"/>
</clipPath>
</defs>
</svg>
