<svg width="57" height="36" viewBox="0 0 57 36" fill="none" xmlns="http://www.w3.org/2000/svg">
<rect width="57" height="36" rx="8" fill="#F5F5F5"/>
<path d="M26.832 11.7754V15.3027H28.3496V16.9023H26.832V20.3477H24.8633V11.7754H26.832ZM16.5645 18.625C17.4531 18.625 18.458 18.6182 19.5039 18.5977V17.9551C18.1777 17.7432 17.3438 17.0869 17.3438 16.1367C17.3438 14.9746 18.5879 14.2637 20.4609 14.2637C22.334 14.2637 23.5781 14.9746 23.5781 16.1367C23.5781 17.0801 22.7646 17.7295 21.459 17.9414V18.5293C22.4434 18.4814 23.4209 18.4062 24.3438 18.2969L24.4805 19.6367C21.8555 20.0879 18.9707 20.1289 16.7695 20.1289L16.5645 18.625ZM26.832 20.7988V24.3125H24.8633V22.3027H18.1777V20.7988H26.832ZM24.043 12.623V14.0449H16.8926V12.623H19.5039V11.666H21.459V12.623H24.043ZM20.4609 15.5625C19.6543 15.5625 19.2305 15.7129 19.2305 16.1367C19.2305 16.5332 19.6543 16.752 20.4609 16.7383C21.2539 16.752 21.6914 16.5332 21.6914 16.1367C21.6914 15.7129 21.2539 15.5625 20.4609 15.5625ZM39.3691 11.7754V20.7441H37.4004V11.7754H39.3691ZM39.6836 22.5352V24.1074H30.8652V19.8418H32.8613V22.5352H39.6836ZM32.4648 12.5547C34.4062 12.5547 35.9375 13.8945 35.9375 15.7402C35.9375 17.627 34.4062 18.9531 32.4648 18.9531C30.5234 18.9531 28.9785 17.627 28.9922 15.7402C28.9785 13.8945 30.5234 12.5547 32.4648 12.5547ZM32.4648 14.2637C31.5762 14.25 30.9062 14.7969 30.9062 15.7402C30.9062 16.7246 31.5762 17.2441 32.4648 17.2441C33.3125 17.2441 33.9824 16.7246 33.9824 15.7402C33.9824 14.7969 33.3125 14.25 32.4648 14.2637Z" fill="#96979B"/>
</svg>
