<svg width="335" height="56" viewBox="0 0 335 56" fill="none" xmlns="http://www.w3.org/2000/svg">
<g opacity="0.3">
<rect width="335" height="56" rx="12" fill="#96979B"/>
<path d="M153.883 21.3906V31.5469H152.664V21.3906H153.883ZM154.32 33.9375V34.9688H144.914V30.5156H146.133V33.9375H154.32ZM146.383 22.3594C148.461 22.3594 150.023 23.7656 150.023 25.7656C150.023 27.7969 148.461 29.1875 146.383 29.1875C144.305 29.1875 142.742 27.7969 142.742 25.7656C142.742 23.7656 144.305 22.3594 146.383 22.3594ZM146.383 23.4375C144.977 23.4375 143.93 24.4062 143.945 25.7656C143.93 27.1562 144.977 28.1094 146.383 28.1094C147.758 28.1094 148.82 27.1562 148.82 25.7656C148.82 24.4062 147.758 23.4375 146.383 23.4375ZM168.898 27.9844V29H156.242V27.9844H168.898ZM162.57 30.2188C165.555 30.2188 167.336 31.1406 167.352 32.7344C167.336 34.3438 165.555 35.2344 162.57 35.2344C159.57 35.2344 157.773 34.3438 157.773 32.7344C157.773 31.1406 159.57 30.2188 162.57 30.2188ZM162.57 31.1875C160.336 31.2031 159.008 31.75 159.023 32.7344C159.008 33.7031 160.336 34.25 162.57 34.25C164.773 34.25 166.117 33.7031 166.117 32.7344C166.117 31.75 164.773 31.2031 162.57 31.1875ZM167.773 22.0938V23.1094H163.367C163.414 24.6875 165.727 25.8906 168.195 26.1719L167.742 27.1562C165.469 26.8672 163.336 25.8516 162.57 24.2969C161.812 25.8516 159.688 26.8672 157.398 27.1562L156.961 26.1719C159.383 25.8906 161.711 24.6875 161.773 23.1094H157.398V22.0938H167.773ZM174.305 22.0312C176.336 22.0312 177.758 23.125 177.758 24.7812C177.758 26.2109 176.633 27.25 174.961 27.4531V28.8125C176.258 28.7578 177.578 28.6406 178.789 28.4531L178.883 29.375C175.945 29.9062 172.617 29.9375 170.211 29.9375L170.055 28.9219C171.133 28.9297 172.398 28.9219 173.727 28.875V27.4688C172.008 27.2812 170.852 26.2344 170.867 24.7812C170.852 23.125 172.273 22.0312 174.305 22.0312ZM174.305 22.9844C172.961 22.9844 172.008 23.7031 172.023 24.7812C172.008 25.8281 172.961 26.5469 174.305 26.5625C175.664 26.5469 176.586 25.8281 176.602 24.7812C176.586 23.7031 175.664 22.9844 174.305 22.9844ZM180.914 21.3906V26.0938H182.992V27.1406H180.914V32.0156H179.68V21.3906H180.914ZM181.414 33.9219V34.9531H172.086V31.0938H173.32V33.9219H181.414ZM196.617 32.5156V33.5469H183.898V32.5156H187.477V29.875H185.492V25.5938H193.805V23.4219H185.461V22.4062H195.008V26.6094H186.711V28.8594H195.336V29.875H193.164V32.5156H196.617ZM188.68 32.5156H191.961V29.875H188.68V32.5156Z" fill="white"/>
</g>
</svg>
