<svg width="335" height="56" viewBox="0 0 335 56" fill="none" xmlns="http://www.w3.org/2000/svg">
<rect width="335" height="56" rx="12" fill="#5924ED"/>
<path d="M151.969 21.3438V31.5156H150.484V21.3438H151.969ZM152.391 33.8281V35.0312H142.812V30.4844H144.312V33.8281H152.391ZM144.375 22.2812C146.484 22.2812 148.094 23.7188 148.094 25.75C148.094 27.8125 146.484 29.2344 144.375 29.2344C142.266 29.2344 140.641 27.8125 140.641 25.75C140.641 23.7188 142.266 22.2812 144.375 22.2812ZM144.375 23.5781C143.062 23.5781 142.094 24.4688 142.094 25.75C142.094 27.0625 143.062 27.9375 144.375 27.9375C145.656 27.9375 146.641 27.0625 146.641 25.75C146.641 24.4688 145.656 23.5781 144.375 23.5781ZM166.953 27.9219V29.125H154.188V27.9219H166.953ZM160.562 30.2031C163.578 30.2031 165.391 31.1406 165.391 32.7656C165.391 34.3906 163.578 35.3125 160.562 35.2969C157.531 35.3125 155.703 34.3906 155.703 32.7656C155.703 31.1406 157.531 30.2031 160.562 30.2031ZM160.562 31.3594C158.422 31.375 157.203 31.8594 157.203 32.7656C157.203 33.6562 158.422 34.125 160.562 34.125C162.672 34.125 163.906 33.6562 163.906 32.7656C163.906 31.8594 162.672 31.375 160.562 31.3594ZM165.812 22.0156V23.2344H161.562C161.727 24.5938 163.711 25.75 166.297 26.0156L165.766 27.1875C163.344 26.9062 161.336 25.8828 160.578 24.4062C159.797 25.8828 157.797 26.9062 155.375 27.1875L154.859 26.0156C157.398 25.75 159.398 24.6016 159.578 23.2344H155.359V22.0156H165.812ZM178.922 21.3281V27H181.172V28.2344H178.922V35.3281H177.453V21.3281H178.922ZM176.234 23.5156V24.7344H167.938V23.5156H171.391V21.5156H172.875V23.5156H176.234ZM172.141 25.7656C174.141 25.7656 175.609 27.1094 175.625 29.0156C175.609 30.9375 174.141 32.2656 172.141 32.2812C170.125 32.2656 168.656 30.9375 168.656 29.0156C168.656 27.1094 170.125 25.7656 172.141 25.7656ZM172.141 26.9844C170.953 26.9844 170.062 27.8125 170.078 29.0156C170.062 30.2344 170.953 31.0469 172.141 31.0312C173.328 31.0469 174.203 30.2344 174.203 29.0156C174.203 27.8125 173.328 26.9844 172.141 26.9844ZM193.484 21.3281V35.3281H191.984V21.3281H193.484ZM189.312 22.8281C189.312 26.9219 187.562 30.4844 182.766 32.7812L181.984 31.5781C185.711 29.8047 187.523 27.2812 187.812 24.0156H182.656V22.8281H189.312Z" fill="white"/>
</svg>
