<svg width="40" height="40" viewBox="0 0 40 40" fill="none" xmlns="http://www.w3.org/2000/svg">
<rect width="40" height="40" rx="12" fill="#F5F5F5"/>
<path fill-rule="evenodd" clip-rule="evenodd" d="M12.3194 12.3214C12.0433 12.1915 11.716 12.2418 11.4916 12.4486C11.2673 12.6555 11.1906 12.9776 11.2978 13.2634L13.876 19.25H18.75C19.1642 19.25 19.5 19.5858 19.5 20C19.5 20.4142 19.1642 20.75 18.75 20.75H13.876L11.2978 26.7367C11.1906 27.0224 11.2673 27.3445 11.4916 27.5514C11.716 27.7583 12.0433 27.8086 12.3194 27.6786L29.3194 20.6786C29.5822 20.5549 29.75 20.2905 29.75 20C29.75 19.7095 29.5822 19.4451 29.3194 19.3214L12.3194 12.3214Z" fill="#B8B9BB"/>
</svg>
