<svg width="335" height="56" viewBox="0 0 335 56" fill="none" xmlns="http://www.w3.org/2000/svg">
<rect width="335" height="56" rx="12" fill="#5924ED"/>
<path d="M153.664 21.2656C157.008 21.2812 158.914 22.1406 158.93 23.7188C158.914 25.1172 157.414 25.9375 154.742 26.1094V26.8594H160.211V28.625H147.133V26.8594H152.508V26.1094C149.883 25.9219 148.398 25.1016 148.398 23.7188C148.398 22.1406 150.32 21.2812 153.664 21.2656ZM153.664 22.9219C151.648 22.9219 150.758 23.1562 150.758 23.7188C150.758 24.3125 151.648 24.5156 153.664 24.5156C155.711 24.5156 156.602 24.3125 156.602 23.7188C156.602 23.1562 155.711 22.9219 153.664 22.9219ZM158.648 29.2812V33.0781H150.836V33.7344H158.992V35.4219H148.617V31.5312H156.414V30.9375H148.617V29.2812H158.648ZM173.023 21.1562V35.5312H170.789V21.1562H173.023ZM168.555 22.3281V27.9844H164.039V30.3594C166.156 30.3438 167.922 30.2344 169.883 29.9062L170.07 31.7188C167.805 32.125 165.695 32.2188 163.023 32.2188H161.711V26.2188H166.258V24.125H161.711V22.3281H168.555ZM186.898 21.1562V35.5H184.617V21.1562H186.898ZM182.586 22.6406C182.586 27.0625 181.18 30.6562 175.961 33.1094L174.789 31.3281C178.438 29.6016 179.969 27.4844 180.289 24.3906H175.602V22.6406H182.586Z" fill="white"/>
</svg>
