<svg width="136" height="28" viewBox="0 0 136 28" fill="none" xmlns="http://www.w3.org/2000/svg">
<rect width="28" height="28" rx="4" fill="#5924ED"/>
<path d="M13.5319 20V11.44C13.2599 11.6373 13.0039 11.792 12.7639 11.904C12.5292 12.016 12.2865 12.1013 12.0359 12.16L11.8279 10.544C12.0785 10.48 12.3479 10.3573 12.6359 10.176C12.9292 9.99467 13.1985 9.784 13.4439 9.544C13.6892 9.304 13.8732 9.056 13.9959 8.8H15.3719V20H13.5319Z" fill="white"/>
<rect x="36" y="13" width="10" height="2" rx="1" fill="#5924ED"/>
<rect x="54" width="28" height="28" rx="4" fill="#5924ED"/>
<path d="M64.5573 19.992L67.5493 15.424C67.9173 14.8587 68.2186 14.3707 68.4533 13.96C68.6933 13.5493 68.8693 13.1813 68.9813 12.856C69.0986 12.5253 69.1573 12.208 69.1573 11.904C69.1573 11.408 69.0186 11.0187 68.7413 10.736C68.4639 10.4533 68.0773 10.312 67.5813 10.312C67.0319 10.312 66.5333 10.4427 66.0853 10.704C65.6426 10.96 65.2399 11.2693 64.8773 11.632L64.6453 9.736C65.0826 9.384 65.5679 9.10133 66.1013 8.888C66.6346 8.67467 67.2373 8.568 67.9093 8.568C68.5866 8.568 69.1519 8.70667 69.6053 8.984C70.0639 9.26133 70.4053 9.62933 70.6293 10.088C70.8586 10.5467 70.9733 11.0533 70.9733 11.608C70.9733 12.0613 70.9119 12.504 70.7893 12.936C70.6666 13.3627 70.4719 13.8293 70.2053 14.336C69.9386 14.8373 69.5893 15.416 69.1573 16.072L67.7013 18.272H71.3893V19.992H64.5573Z" fill="white"/>
<rect x="90" y="13" width="10" height="2" rx="1" fill="#E8E8E9"/>
<rect x="108" width="28" height="28" rx="4" fill="#F5F5F5"/>
<path d="M121.44 20.224C120.789 20.224 120.192 20.1467 119.648 19.992C119.104 19.832 118.642 19.6533 118.264 19.456L118.72 17.848C119.109 18.056 119.53 18.2347 119.984 18.384C120.437 18.528 120.922 18.6 121.44 18.6C122.069 18.6 122.565 18.4533 122.928 18.16C123.296 17.8613 123.48 17.432 123.48 16.872C123.48 16.2907 123.293 15.8427 122.92 15.528C122.546 15.208 121.976 15.048 121.208 15.048H120.232V13.328H121.2C121.818 13.328 122.296 13.184 122.632 12.896C122.973 12.608 123.144 12.2107 123.144 11.704C123.144 11.224 122.997 10.8533 122.704 10.592C122.416 10.3307 122 10.2 121.456 10.2C121.002 10.2 120.576 10.2773 120.176 10.432C119.776 10.5813 119.381 10.7733 118.992 11.008L118.704 9.288C119.088 9.08533 119.528 8.91733 120.024 8.784C120.525 8.64533 121.072 8.576 121.664 8.576C122.378 8.576 122.984 8.70133 123.48 8.952C123.976 9.19733 124.352 9.53867 124.608 9.976C124.864 10.4133 124.992 10.912 124.992 11.472C124.992 12.1973 124.792 12.8107 124.392 13.312C123.992 13.808 123.437 14.1413 122.728 14.312L122.72 13.944C123.525 14.0827 124.168 14.3973 124.648 14.888C125.133 15.3787 125.376 16.0347 125.376 16.856C125.376 17.5707 125.208 18.1787 124.872 18.68C124.536 19.1813 124.072 19.5653 123.48 19.832C122.888 20.0933 122.208 20.224 121.44 20.224Z" fill="#96979B"/>
</svg>
