<svg width="335" height="56" viewBox="0 0 335 56" fill="none" xmlns="http://www.w3.org/2000/svg">
<rect width="335" height="56" rx="12" fill="#5924ED"/>
<path d="M148.175 20.592H150.319V35.456H148.175V20.592ZM149.839 26.08H152.463V27.824H149.839V26.08ZM139.279 30.128H140.527C143.023 30.128 144.991 30.048 147.167 29.664L147.375 31.424C145.135 31.824 143.103 31.888 140.527 31.888H139.279V30.128ZM139.279 21.968H146.191V23.68H141.391V30.976H139.279V21.968ZM160.125 20.88C163.389 20.88 165.485 21.984 165.485 23.776C165.485 25.568 163.389 26.656 160.125 26.656C156.861 26.656 154.765 25.568 154.765 23.776C154.765 21.984 156.861 20.88 160.125 20.88ZM160.125 22.528C158.093 22.528 156.957 22.928 156.957 23.776C156.957 24.608 158.093 25.024 160.125 25.024C162.141 25.024 163.293 24.608 163.293 23.776C163.293 22.928 162.141 22.528 160.125 22.528ZM154.973 30.208H165.213V35.264H154.973V30.208ZM163.133 31.888H157.069V33.584H163.133V31.888ZM153.421 27.504H166.813V29.184H153.421V27.504ZM174.844 21.344C177.964 21.344 180.38 23.056 180.38 25.632C180.38 28.224 177.964 29.92 174.844 29.92C171.724 29.92 169.308 28.224 169.308 25.632C169.308 23.056 171.724 21.344 174.844 21.344ZM174.844 23.072C172.828 23.072 171.388 24.032 171.388 25.632C171.388 27.216 172.828 28.176 174.844 28.176C176.86 28.176 178.3 27.216 178.3 25.632C178.3 24.032 176.86 23.072 174.844 23.072ZM168.156 31.904H181.564V33.648H168.156V31.904ZM182.875 32.064H196.283V33.792H182.875V32.064ZM188.491 29.264H190.619V32.768H188.491V29.264ZM184.379 21.568H194.779V26.496H186.523V28.992H184.411V24.832H192.667V23.248H184.379V21.568ZM184.411 28.144H195.115V29.856H184.411V28.144Z" fill="white"/>
</svg>
