<svg width="69" height="36" viewBox="0 0 69 36" fill="none" xmlns="http://www.w3.org/2000/svg">
<rect width="69" height="36" rx="8" fill="#F5F5F5"/>
<path d="M23.7881 12.7871V13.6484H22.5439V16.793C23.166 16.752 23.7812 16.6973 24.3623 16.6289L24.417 17.4355C21.9424 17.8047 19.1123 17.832 17.0068 17.832L16.8838 16.9434L18.4561 16.9297V13.6484H17.2256V12.7871H23.7881ZM26.3447 11.9531V14.6328H28.1768V15.5352H26.3447V18.2695H25.2783V11.9531H26.3447ZM26.3447 18.8574V21.7559H19.6729V23.0957H26.7959V23.9707H18.6201V20.9355H25.2783V19.7188H18.5928V18.8574H26.3447ZM19.5088 16.916C20.1582 16.9092 20.8213 16.8887 21.4912 16.8477V13.6484H19.5088V16.916ZM40.0713 21.7012V22.6035H28.9424V21.7012H33.9463V19.4043H30.3369V15.6582H37.6104V13.7441H30.3096V12.8555H38.6631V16.5332H31.4033V18.5156H38.9502V19.4043H34.999V21.7012H40.0713ZM52.1572 18.9258V19.8281H47.085V24.1074H46.0322V19.8281H41.0283V18.9258H52.1572ZM46.5654 12.4453C49.1221 12.4453 50.8447 13.4707 50.8447 15.125C50.8447 16.7383 49.1221 17.7637 46.5654 17.7637C44.0088 17.7637 42.2861 16.7383 42.2861 15.125C42.2861 13.4707 44.0088 12.4453 46.5654 12.4453ZM46.5654 13.3203C44.665 13.3203 43.3799 14.0312 43.3936 15.125C43.3799 16.2051 44.665 16.9023 46.5654 16.9023C48.4521 16.9023 49.751 16.2051 49.751 15.125C49.751 14.0312 48.4521 13.3203 46.5654 13.3203Z" fill="#96979B"/>
</svg>
