<svg width="69" height="36" viewBox="0 0 69 36" fill="none" xmlns="http://www.w3.org/2000/svg">
<rect width="69" height="36" rx="8" fill="#F5F5F5"/>
<path d="M26.9805 13.9082C26.9668 15.5625 28.2246 17.0801 30.0156 17.6953L29.4551 18.543C28.0811 18.0508 27.0078 17.0186 26.4746 15.7266C25.9619 17.1553 24.8682 18.2559 23.4258 18.7891L22.8652 17.9277C24.6973 17.2715 25.9141 15.6855 25.9277 13.8398V12.582H26.9805V13.9082ZM32.3945 11.9531V15.1797H34.2266V16.0957H32.3945V19.3223H31.3281V11.9531H32.3945ZM32.3945 19.9238V24.1074H31.3281V20.7988H24.4375V19.9238H32.3945ZM45.3828 11.9531V24.1074H44.3574V11.9531H45.3828ZM42.9219 12.2539V23.4785H41.9102V17.2168H39.8594V16.3418H41.9102V12.2539H42.9219ZM38.5605 15.4258C38.5605 17.5312 39.5039 19.623 41.1855 20.5938L40.5293 21.3867C39.333 20.6689 38.4854 19.3564 38.0684 17.8047C37.624 19.4795 36.7422 20.9082 35.5254 21.6738L34.8418 20.8672C36.5371 19.8555 37.5215 17.6406 37.5215 15.4258V14.2773H35.1836V13.3887H40.7891V14.2773H38.5605V15.4258Z" fill="#96979B"/>
</svg>
