<svg width="69" height="36" viewBox="0 0 69 36" fill="none" xmlns="http://www.w3.org/2000/svg">
<rect width="69" height="36" rx="8" fill="#EEE9FD"/>
<path d="M23.665 12.5137V14.0039H22.7217V16.2871C23.1729 16.2666 23.6172 16.2256 24.0479 16.1777L24.1299 17.5859C21.71 17.9688 18.9072 17.9961 16.7881 17.9961L16.5693 16.4785L17.8545 16.4648V14.0039H16.8975V12.5137H23.665ZM26.6729 11.7617V14.1406H28.2998V15.7539H26.6729V18.1738H24.7041V11.7617H26.6729ZM26.6729 18.6387V22.1113H20.2061V22.6992H27.001V24.2441H18.2646V20.7305H24.7041V20.1562H18.251V18.6387H26.6729ZM19.7412 16.4375L20.835 16.3965V14.0039H19.7412V16.4375ZM40.249 21.3594V22.959H28.7783V21.3594H33.5225V19.6094H30.0635V15.2891H37.0225V14.1133H30.0498V12.541H38.9639V16.8203H32.0322V18.0234H39.251V19.6094H35.4639V21.3594H40.249ZM52.335 18.7207V20.3203H47.5361V24.3262H45.5811V20.3203H40.8643V18.7207H52.335ZM46.5654 12.1582C49.2725 12.1582 51.1865 13.2793 51.1865 15.0293C51.1865 16.752 49.2725 17.8457 46.5654 17.8457C43.8584 17.8457 41.958 16.752 41.9717 15.0293C41.958 13.2793 43.8584 12.1582 46.5654 12.1582ZM46.5654 13.7168C44.9658 13.7305 43.9951 14.168 43.9951 15.0293C43.9951 15.8633 44.9658 16.3008 46.5654 16.3008C48.1787 16.3008 49.1494 15.8633 49.1494 15.0293C49.1494 14.168 48.1787 13.7305 46.5654 13.7168Z" fill="#5924ED"/>
</svg>
