<svg width="335" height="44" viewBox="0 0 335 44" fill="none" xmlns="http://www.w3.org/2000/svg">
<rect width="335" height="44" rx="8" fill="#EEE9FD"/>
<path d="M132.671 15.9121V28.1621H131.427V21.8867H129.854V27.5332H128.638V16.1582H129.854V20.8203H131.427V15.9121H132.671ZM124.058 17.3613V23.8965C125.192 23.8896 126.43 23.8008 127.817 23.5273L127.954 24.6621C126.272 24.9629 124.864 25.0449 123.552 25.0449H122.759V17.3613H124.058ZM147.86 15.9258V24.8262H146.562V15.9258H147.86ZM148.229 26.8496V27.9023H139.849V23.9238H141.161V26.8496H148.229ZM141.216 16.7461C143.062 16.7461 144.47 18.0039 144.47 19.7812C144.47 21.5859 143.062 22.8301 141.216 22.8301C139.37 22.8301 137.948 21.5859 137.948 19.7812C137.948 18.0039 139.37 16.7461 141.216 16.7461ZM141.216 17.8809C140.067 17.8809 139.22 18.6602 139.22 19.7812C139.22 20.9297 140.067 21.6953 141.216 21.6953C142.337 21.6953 143.198 20.9297 143.198 19.7812C143.198 18.6602 142.337 17.8809 141.216 17.8809ZM160.972 21.6816V22.7344H149.802V21.6816H160.972ZM155.38 23.6777C158.019 23.6777 159.604 24.498 159.604 25.9199C159.604 27.3418 158.019 28.1484 155.38 28.1348C152.728 28.1484 151.128 27.3418 151.128 25.9199C151.128 24.498 152.728 23.6777 155.38 23.6777ZM155.38 24.6895C153.507 24.7031 152.44 25.127 152.44 25.9199C152.44 26.6992 153.507 27.1094 155.38 27.1094C157.226 27.1094 158.306 26.6992 158.306 25.9199C158.306 25.127 157.226 24.7031 155.38 24.6895ZM159.974 16.5137V17.5801H156.255C156.398 18.7695 158.135 19.7812 160.397 20.0137L159.933 21.0391C157.813 20.793 156.057 19.8975 155.394 18.6055C154.71 19.8975 152.96 20.793 150.841 21.0391L150.39 20.0137C152.611 19.7812 154.361 18.7764 154.519 17.5801H150.827V16.5137H159.974ZM176.53 25.5645V26.6445H165.319V25.5645H170.255V23.0488H166.604V16.7461H167.903V18.8516H173.919V16.7461H175.204V23.0488H171.54V25.5645H176.53ZM167.903 21.9961H173.919V19.9043H167.903V21.9961ZM187.618 15.9121V28.1895H186.333V21.5996H184.091V20.5195H186.333V15.9121H187.618ZM183.366 17.0195V21.3945H179.169V24.1836C181.124 24.1768 182.628 24.1084 184.337 23.8008L184.446 24.8672C182.614 25.1953 181.001 25.2637 178.841 25.2773H177.87V20.3418H182.108V18.0723H177.843V17.0195H183.366ZM199.062 15.9121V20.793H200.962V21.873H199.062V28.1484H197.763V15.9121H199.062ZM195.862 17.1973C195.849 20.7383 194.29 23.8965 190.257 25.8926L189.532 24.8809C192.602 23.3496 194.27 21.1348 194.536 18.2773H190.147V17.1973H195.862ZM211.804 15.9121V28.1621H210.491V15.9121H211.804ZM208.153 17.2246C208.153 20.8066 206.622 23.9238 202.425 25.9336L201.741 24.8809C205.002 23.3291 206.588 21.1211 206.841 18.2637H202.329V17.2246H208.153Z" fill="#5924ED"/>
</svg>
