<svg width="30" height="30" viewBox="0 0 26 28" fill="none" xmlns="http://www.w3.org/2000/svg">
<g filter="url(#filter0_d_53_12093)">
<path d="M4.75 12C4.75 11.5858 5.08579 11.25 5.5 11.25H9.25V18.75H5.5C5.08579 18.75 4.75 18.4142 4.75 18V12Z" stroke="#1A1C25" stroke-width="5" stroke-linejoin="round"/>
<path d="M12.841 3.495C13.0546 3.06793 13.6075 2.94648 13.9804 3.24476L14.4489 2.65911L13.9804 3.24476L14.648 3.77888C15.3841 4.36775 15.6751 5.35306 15.377 6.24734L14.703 8.26924C14.4602 8.99772 15.0024 9.75 15.7703 9.75H20.2705C20.7269 9.75 21.0775 10.1542 21.0129 10.6061L19.9415 18.1061C19.8887 18.4756 19.5723 18.75 19.1991 18.75H10C9.58579 18.75 9.25 18.4142 9.25 18V10.8541C9.25 10.7377 9.27711 10.6228 9.32918 10.5187L12.841 3.495Z" stroke="#1A1C25" stroke-width="1.5" stroke-linejoin="round"/>
</g>
<defs>
<filter id="filter0_d_53_12093" x="-3" y="0" width="32" height="32" filterUnits="userSpaceOnUse" color-interpolation-filters="sRGB">
<feFlood flood-opacity="0" result="BackgroundImageFix"/>
<feColorMatrix in="SourceAlpha" type="matrix" values="0 0 0 0 0 0 0 0 0 0 0 0 0 0 0 0 0 0 127 0" result="hardAlpha"/>
<feOffset dy="4"/>
<feGaussianBlur stdDeviation="2"/>
<feComposite in2="hardAlpha" operator="out"/>
<feColorMatrix type="matrix" values="0 0 0 0 0 0 0 0 0 0 0 0 0 0 0 0 0 0 0.25 0"/>
<feBlend mode="normal" in2="BackgroundImageFix" result="effect1_dropShadow_53_12093"/>
<feBlend mode="normal" in="SourceGraphic" in2="effect1_dropShadow_53_12093" result="shape"/>
</filter>
</defs>
</svg>
