<svg width="40" height="40" viewBox="0 0 40 40" fill="none" xmlns="http://www.w3.org/2000/svg">
<path d="M11.4737 15.0774L20 10.1547L28.5263 15.0774V24.9227L20 29.8453L11.4737 24.9227V15.0774Z" stroke="white" stroke-width="2"/>
<path d="M16.7822 15H20.7827C21.5798 15 22.2613 15.1501 22.8272 15.4502C23.3979 15.7504 23.8285 16.1686 24.1188 16.705C24.4091 17.2364 24.5543 17.849 24.5543 18.5428C24.5543 19.2317 24.4067 19.8419 24.1114 20.3733C23.8211 20.8998 23.3906 21.3156 22.8198 21.6206C22.249 21.9208 21.5601 22.0709 20.7531 22.0709H18.096V20.484H20.4948C20.9672 20.484 21.3584 20.4028 21.6684 20.2404C21.9833 20.0731 22.2145 19.8468 22.3622 19.5614C22.5098 19.2711 22.5861 18.9315 22.591 18.5428C22.5861 18.1492 22.5098 17.8097 22.3622 17.5243C22.2145 17.2339 21.9833 17.0101 21.6684 16.8526C21.3534 16.6902 20.9598 16.609 20.4874 16.609H18.7013V25.6875H16.7822V15Z" fill="white"/>
</svg>
