<svg width="24" height="24" viewBox="0 0 24 24" fill="none" xmlns="http://www.w3.org/2000/svg">
<path d="M3 3.75V3C2.58579 3 2.25 3.33579 2.25 3.75H3ZM21 3.75H21.75C21.75 3.33579 21.4142 3 21 3V3.75ZM3 17.25H2.25C2.25 17.6642 2.58579 18 3 18V17.25ZM8.24856 17.25L8.99361 17.336C9.01814 17.1235 8.95079 16.9107 8.80848 16.751C8.66617 16.5913 8.46245 16.5 8.24856 16.5V17.25ZM7.94856 19.8481L7.20351 19.7621C7.16921 20.0591 7.31461 20.3481 7.57356 20.4976C7.8325 20.6471 8.1555 20.6285 8.39559 20.4503L7.94856 19.8481ZM11.4486 17.25V16.5C11.2876 16.5 11.1308 16.5518 11.0015 16.6478L11.4486 17.25ZM21 17.25V18C21.4142 18 21.75 17.6642 21.75 17.25H21ZM3 4.5H21V3H3V4.5ZM3.75 17.25V3.75H2.25V17.25H3.75ZM8.24856 16.5H3V18H8.24856V16.5ZM7.50351 17.164L7.20351 19.7621L8.69361 19.9341L8.99361 17.336L7.50351 17.164ZM8.39559 20.4503L11.8956 17.8522L11.0015 16.6478L7.50153 19.2459L8.39559 20.4503ZM21 16.5H11.4486V18H21V16.5ZM20.25 3.75V17.25H21.75V3.75H20.25Z" fill="#1A1C25"/>
<circle cx="7.5" cy="10.5" r="1.5" fill="#1A1C25"/>
<circle cx="12" cy="10.5" r="1.5" fill="#1A1C25"/>
<circle cx="16.5" cy="10.5" r="1.5" fill="#1A1C25"/>
</svg>
