<svg width="335" height="56" viewBox="0 0 335 56" fill="none" xmlns="http://www.w3.org/2000/svg">
<rect width="335" height="56" rx="12" fill="#5924ED"/>
<path d="M145.266 24.2188C145.266 25.8438 146.531 27.3438 148.672 27.9531L147.984 29.1094C146.367 28.6328 145.172 27.6484 144.547 26.375C143.938 27.7812 142.711 28.8672 141.047 29.375L140.328 28.2188C142.469 27.5938 143.797 25.9844 143.797 24.2188V24.0781H140.75V22.8906H143.797V21.2656H145.281V22.8906H148.312V24.0781H145.266V24.2188ZM151.359 21.3281V24.7969H153.391V26.0312H151.359V29.5938H149.875V21.3281H151.359ZM151.359 30.2188V35.1562H142.422V30.2188H151.359ZM143.875 31.3906V33.9531H149.891V31.3906H143.875ZM165.094 21.3281V26.9062H167.266V28.1406H165.094V35.3125H163.609V21.3281H165.094ZM161.438 22.7969C161.422 26.8438 159.641 30.4531 155.031 32.7344L154.203 31.5781C157.711 29.8281 159.617 27.2969 159.922 24.0312H154.906V22.7969H161.438ZM178.922 21.3281V27H181.172V28.2344H178.922V35.3281H177.453V21.3281H178.922ZM176.234 23.5156V24.7344H167.938V23.5156H171.391V21.5156H172.875V23.5156H176.234ZM172.141 25.7656C174.141 25.7656 175.609 27.1094 175.625 29.0156C175.609 30.9375 174.141 32.2656 172.141 32.2812C170.125 32.2656 168.656 30.9375 168.656 29.0156C168.656 27.1094 170.125 25.7656 172.141 25.7656ZM172.141 26.9844C170.953 26.9844 170.062 27.8125 170.078 29.0156C170.062 30.2344 170.953 31.0469 172.141 31.0312C173.328 31.0469 174.203 30.2344 174.203 29.0156C174.203 27.8125 173.328 26.9844 172.141 26.9844ZM193.484 21.3281V35.3281H191.984V21.3281H193.484ZM189.312 22.8281C189.312 26.9219 187.562 30.4844 182.766 32.7812L181.984 31.5781C185.711 29.8047 187.523 27.2812 187.812 24.0156H182.656V22.8281H189.312Z" fill="white"/>
</svg>
