<svg width="335" height="56" viewBox="0 0 276 48" fill="none" xmlns="http://www.w3.org/2000/svg">
<g opacity="0.3">
<rect width="335" height="56" rx="8" fill="#5924ED"/>
<path d="M115.617 20.125C115.617 20.9635 115.469 21.7396 115.172 22.4531C114.875 23.1667 114.424 23.7865 113.82 24.3125C113.216 24.8333 112.474 25.2161 111.594 25.4609L110.648 23.9141C111.393 23.7161 112.018 23.4219 112.523 23.0312C113.034 22.6354 113.411 22.1901 113.656 21.6953C113.901 21.2005 114.023 20.6771 114.023 20.125V19.6094H115.617V20.125ZM116 20.125C116 20.6302 116.12 21.1146 116.359 21.5781C116.604 22.0365 116.974 22.4505 117.469 22.8203C117.969 23.1901 118.591 23.474 119.336 23.6719L118.422 25.2109C117.536 24.9766 116.792 24.6094 116.188 24.1094C115.583 23.6042 115.13 23.013 114.828 22.3359C114.531 21.6536 114.383 20.9167 114.383 20.125V19.6094H116V20.125ZM118.867 20.2109H111.156V18.6406H118.867V20.2109ZM116.023 19.3281H114.023V17.1562H116.023V19.3281ZM122.047 25.5469H120.055V17.2031H122.047V25.5469ZM123.969 22.1875H121.484V20.5547H123.969V22.1875ZM122.047 31.2812H112.75V26.1406H122.047V31.2812ZM114.727 29.6797H120.078V27.7109H114.727V29.6797ZM135.812 31.4141H133.812V17.2031H135.812V31.4141ZM137.82 24.3125H135.297V22.6719H137.82V24.3125ZM132.016 18.6719C132.01 20.151 131.797 21.5182 131.375 22.7734C130.958 24.0286 130.273 25.1823 129.32 26.2344C128.367 27.2865 127.117 28.1927 125.57 28.9531L124.445 27.4297C125.716 26.7891 126.766 26.0625 127.594 25.25C128.422 24.4323 129.039 23.513 129.445 22.4922C129.852 21.4661 130.057 20.3125 130.062 19.0312V18.6719H132.016ZM131.062 20.3047H125.242V18.6719H131.062V20.3047ZM149.641 31.4375H147.672V17.2031H149.641V31.4375ZM151.75 24.4219H149.203V22.7891H151.75V24.4219ZM146.703 20.9375H138.352V19.3359H146.703V20.9375ZM142.562 21.7266C143.245 21.7266 143.862 21.8724 144.414 22.1641C144.971 22.4505 145.406 22.8516 145.719 23.3672C146.036 23.8828 146.198 24.4661 146.203 25.1172C146.198 25.7734 146.036 26.3594 145.719 26.875C145.406 27.3854 144.971 27.7865 144.414 28.0781C143.862 28.3646 143.245 28.5078 142.562 28.5078C141.87 28.5078 141.247 28.3646 140.695 28.0781C140.143 27.7865 139.711 27.3854 139.398 26.875C139.086 26.3594 138.93 25.7734 138.93 25.1172C138.93 24.4661 139.086 23.8828 139.398 23.3672C139.711 22.8516 140.143 22.4505 140.695 22.1641C141.247 21.8724 141.87 21.7266 142.562 21.7266ZM142.562 23.3516C142.229 23.3568 141.932 23.4297 141.672 23.5703C141.411 23.7109 141.206 23.9167 141.055 24.1875C140.909 24.4531 140.836 24.763 140.836 25.1172C140.836 25.4818 140.909 25.7969 141.055 26.0625C141.206 26.3229 141.411 26.5234 141.672 26.6641C141.932 26.8047 142.229 26.8776 142.562 26.8828C142.896 26.8776 143.193 26.8047 143.453 26.6641C143.719 26.5234 143.922 26.3229 144.062 26.0625C144.208 25.7969 144.281 25.4818 144.281 25.1172C144.281 24.763 144.208 24.4531 144.062 24.1875C143.922 23.9167 143.719 23.7109 143.453 23.5703C143.193 23.4297 142.896 23.3568 142.562 23.3516ZM143.555 19.9453H141.57V17.4297H143.555V19.9453ZM164.203 31.4375H162.18V17.2031H164.203V31.4375ZM159.945 18.7031C159.94 20.2292 159.734 21.6146 159.328 22.8594C158.922 24.099 158.232 25.2396 157.258 26.2812C156.284 27.3229 154.979 28.2292 153.344 29L152.297 27.4062C153.661 26.7604 154.758 26.0339 155.586 25.2266C156.419 24.4193 157.023 23.513 157.398 22.5078C157.773 21.5026 157.961 20.3516 157.961 19.0547V18.7031H159.945ZM158.875 20.2734H153.055V18.7031H158.875V20.2734Z" fill="white"/>
</g>
</svg>
