<svg width="335" height="56" viewBox="0 0 335 56" fill="none" xmlns="http://www.w3.org/2000/svg">
<rect width="335" height="56" rx="12" fill="#5924ED"/>
<path d="M148.406 22.5156V24.2656H145.641C145.711 25.5859 146.625 26.9375 148.906 27.5312L147.891 29.2656C146.273 28.8594 145.18 28.0078 144.531 26.9062C143.898 28.125 142.797 29.0703 141.125 29.5L140.062 27.7656C142.352 27.1641 143.297 25.7188 143.375 24.2656H140.609V22.5156H143.375V21.1094H145.641V22.5156H148.406ZM151.641 21.1562V24.4375H153.5V26.2656H151.641V29.5312H149.391V21.1562H151.641ZM151.641 30.1094V35.3438H142.172V30.1094H151.641ZM144.391 31.875V33.5469H149.422V31.875H144.391ZM165.422 21.1562V26.5469H167.344V28.3906H165.422V35.4531H163.172V21.1562H165.422ZM161.547 22.5938C161.547 26.9531 159.953 30.6719 155.078 33.0625L153.812 31.3438C157.102 29.6953 158.867 27.5547 159.266 24.4375H154.672V22.5938H161.547ZM179.25 21.1562V26.6719H181.281V28.5312H179.25V35.5H177.031V21.1562H179.25ZM176.188 23.25V25.0312H167.797V23.25H170.906V21.3906H173.156V23.25H176.188ZM172.031 25.7188C174.125 25.7188 175.719 27.1562 175.734 29.1719C175.719 31.2031 174.125 32.625 172.031 32.625C169.875 32.625 168.297 31.2031 168.312 29.1719C168.297 27.1562 169.875 25.7188 172.031 25.7188ZM172.031 27.5312C171.109 27.5469 170.453 28.1406 170.469 29.1719C170.453 30.2344 171.109 30.7969 172.031 30.7969C172.922 30.7969 173.562 30.2344 173.578 29.1719C173.562 28.1406 172.922 27.5469 172.031 27.5312ZM193.812 21.1562V35.5H191.531V21.1562H193.812ZM189.5 22.6406C189.5 27.0625 188.094 30.6562 182.875 33.1094L181.703 31.3281C185.352 29.6016 186.883 27.4844 187.203 24.3906H182.516V22.6406H189.5Z" fill="white"/>
</svg>
