<svg width="335" height="56" viewBox="0 0 335 56" fill="none" xmlns="http://www.w3.org/2000/svg">
<g opacity="0.3">
<rect width="335" height="56" rx="12" fill="#5924ED"/>
<path d="M145.141 24.2656C145.141 25.9688 146.547 27.4844 148.594 28.0938L148.016 29.0625C146.414 28.5625 145.164 27.5234 144.562 26.1875C143.953 27.6641 142.664 28.7891 141.016 29.3281L140.406 28.3594C142.469 27.7344 143.938 26.125 143.938 24.2656V24.0156H140.797V23.0312H143.938V21.3125H145.172V23.0312H148.281V24.0156H145.141V24.2656ZM151.266 21.375V24.9062H153.359V25.9375H151.266V29.6094H150.047V21.375H151.266ZM151.266 30.25V35.0781H142.5V30.25H151.266ZM143.703 31.2188V34.0781H150.047V31.2188H143.703ZM164.984 21.375V27.0312H167.234V28.0625H164.984V35.2656H163.766V21.375H164.984ZM161.391 22.875C161.391 26.8125 159.547 30.3906 155.016 32.625L154.328 31.6562C157.922 29.8672 159.875 27.1953 160.156 23.9062H154.969V22.875H161.391ZM178.812 21.375V27.1094H181.141V28.125H178.812V35.2656H177.594V21.375H178.812ZM176.25 23.6094V24.625H167.984V23.6094H171.562V21.5469H172.781V23.6094H176.25ZM172.188 25.7812C174.156 25.7812 175.578 27.0938 175.594 28.9688C175.578 30.8438 174.156 32.1562 172.188 32.1562C170.203 32.1562 168.766 30.8438 168.781 28.9688C168.766 27.0938 170.203 25.7812 172.188 25.7812ZM172.188 26.8125C170.891 26.8125 169.938 27.7188 169.953 28.9688C169.938 30.2344 170.891 31.125 172.188 31.1094C173.469 31.125 174.406 30.2344 174.422 28.9688C174.406 27.7188 173.469 26.8125 172.188 26.8125ZM193.375 21.375V35.2656H192.141V21.375H193.375ZM189.266 22.8906C189.25 26.8906 187.391 30.4219 182.734 32.6562L182.062 31.6562C185.82 29.875 187.734 27.2109 188.016 23.8906H182.703V22.8906H189.266Z" fill="white"/>
</g>
</svg>
