<svg width="24" height="24" viewBox="0 0 24 24" fill="none" xmlns="http://www.w3.org/2000/svg">
<g clip-path="url(#clip0_38_9984)">
<path d="M2.1077 6.28867L12 0.57735L21.8923 6.28867L21.8923 17.7113L12 23.4227L2.1077 17.7113L2.1077 6.28867Z" fill="url(#paint0_linear_38_9984)" stroke="#9C58F6"/>
<path d="M12 2L20.6603 7L20.6603 17L12 22L3.33975 17L3.33975 7L12 2Z" fill="url(#paint1_linear_38_9984)"/>
<g clip-path="url(#clip1_38_9984)">
<path d="M20.6602 7.0001L20.6602 17.0001L11.9999 22.0001L3.33965 17.0001L3.33965 7.0001L11.9999 2.0001L20.6602 7.0001Z" fill="white" fill-opacity="0.1"/>
</g>
<g clip-path="url(#clip2_38_9984)">
<path opacity="0.5" d="M3.36523 7.0001L3.36523 17.0001L12.0255 22.0001L20.6857 17.0001L20.6857 7.0001L12.0255 2.0001L3.36523 7.0001Z" fill="white" fill-opacity="0.2"/>
</g>
<g filter="url(#filter0_f_38_9984)">
<path d="M17.8183 5.81738L17.991 7.54497L17.8183 9.27255L17.6455 7.54497L17.8183 5.81738Z" fill="white"/>
</g>
<g filter="url(#filter1_f_38_9984)">
<path d="M16.0908 7.54404L17.8184 7.37128L19.546 7.54404L17.8184 7.7168L16.0908 7.54404Z" fill="white"/>
</g>
<g filter="url(#filter2_f_38_9984)">
<path d="M15.1364 4.63672L15.2591 5.86399L15.1364 7.09126L15.0137 5.86399L15.1364 4.63672Z" fill="white"/>
</g>
<g filter="url(#filter3_f_38_9984)">
<path d="M13.9092 5.8636L15.1365 5.74087L16.3637 5.8636L15.1365 5.98633L13.9092 5.8636Z" fill="white"/>
</g>
<g filter="url(#filter4_f_38_9984)">
<path d="M7.12321 15.1553L7.31087 17.0319L7.12321 18.9085L6.93555 17.0319L7.12321 15.1553Z" fill="white"/>
</g>
<g filter="url(#filter5_f_38_9984)">
<path d="M5.24609 17.0311L7.12272 16.8434L8.99934 17.0311L7.12272 17.2187L5.24609 17.0311Z" fill="white"/>
</g>
<g filter="url(#filter6_f_38_9984)">
<path d="M5.48946 12.5059L5.62931 13.9044L5.48946 15.3029L5.34961 13.9044L5.48946 12.5059Z" fill="white"/>
</g>
<g filter="url(#filter7_f_38_9984)">
<path d="M4.09082 13.9041L5.48934 13.7642L6.88786 13.9041L5.48934 14.0439L4.09082 13.9041Z" fill="white"/>
</g>
</g>
<defs>
<filter id="filter0_f_38_9984" x="17.3" y="5.47187" width="1.03674" height="4.14611" filterUnits="userSpaceOnUse" color-interpolation-filters="sRGB">
<feFlood flood-opacity="0" result="BackgroundImageFix"/>
<feBlend mode="normal" in="SourceGraphic" in2="BackgroundImageFix" result="shape"/>
<feGaussianBlur stdDeviation="0.172758" result="effect1_foregroundBlur_38_9984"/>
</filter>
<filter id="filter1_f_38_9984" x="15.7453" y="7.02558" width="4.14611" height="1.03674" filterUnits="userSpaceOnUse" color-interpolation-filters="sRGB">
<feFlood flood-opacity="0" result="BackgroundImageFix"/>
<feBlend mode="normal" in="SourceGraphic" in2="BackgroundImageFix" result="shape"/>
<feGaussianBlur stdDeviation="0.172758" result="effect1_foregroundBlur_38_9984"/>
</filter>
<filter id="filter2_f_38_9984" x="14.7682" y="4.39126" width="0.736026" height="2.94501" filterUnits="userSpaceOnUse" color-interpolation-filters="sRGB">
<feFlood flood-opacity="0" result="BackgroundImageFix"/>
<feBlend mode="normal" in="SourceGraphic" in2="BackgroundImageFix" result="shape"/>
<feGaussianBlur stdDeviation="0.122727" result="effect1_foregroundBlur_38_9984"/>
</filter>
<filter id="filter3_f_38_9984" x="13.6637" y="5.49576" width="2.94501" height="0.736026" filterUnits="userSpaceOnUse" color-interpolation-filters="sRGB">
<feFlood flood-opacity="0" result="BackgroundImageFix"/>
<feBlend mode="normal" in="SourceGraphic" in2="BackgroundImageFix" result="shape"/>
<feGaussianBlur stdDeviation="0.122727" result="effect1_foregroundBlur_38_9984"/>
</filter>
<filter id="filter4_f_38_9984" x="6.56022" y="14.7799" width="1.12565" height="4.50358" filterUnits="userSpaceOnUse" color-interpolation-filters="sRGB">
<feFlood flood-opacity="0" result="BackgroundImageFix"/>
<feBlend mode="normal" in="SourceGraphic" in2="BackgroundImageFix" result="shape"/>
<feGaussianBlur stdDeviation="0.187662" result="effect1_foregroundBlur_38_9984"/>
</filter>
<filter id="filter5_f_38_9984" x="4.87077" y="16.4684" width="4.50358" height="1.12565" filterUnits="userSpaceOnUse" color-interpolation-filters="sRGB">
<feFlood flood-opacity="0" result="BackgroundImageFix"/>
<feBlend mode="normal" in="SourceGraphic" in2="BackgroundImageFix" result="shape"/>
<feGaussianBlur stdDeviation="0.187662" result="effect1_foregroundBlur_38_9984"/>
</filter>
<filter id="filter6_f_38_9984" x="5.06991" y="12.2262" width="0.838705" height="3.35628" filterUnits="userSpaceOnUse" color-interpolation-filters="sRGB">
<feFlood flood-opacity="0" result="BackgroundImageFix"/>
<feBlend mode="normal" in="SourceGraphic" in2="BackgroundImageFix" result="shape"/>
<feGaussianBlur stdDeviation="0.139852" result="effect1_foregroundBlur_38_9984"/>
</filter>
<filter id="filter7_f_38_9984" x="3.81112" y="13.4849" width="3.35628" height="0.838705" filterUnits="userSpaceOnUse" color-interpolation-filters="sRGB">
<feFlood flood-opacity="0" result="BackgroundImageFix"/>
<feBlend mode="normal" in="SourceGraphic" in2="BackgroundImageFix" result="shape"/>
<feGaussianBlur stdDeviation="0.139852" result="effect1_foregroundBlur_38_9984"/>
</filter>
<linearGradient id="paint0_linear_38_9984" x1="12" y1="-2.35405e-07" x2="12" y2="24" gradientUnits="userSpaceOnUse">
<stop stop-color="#DE8CFF"/>
<stop offset="0.52" stop-color="white"/>
<stop offset="1" stop-color="#E9B4FF"/>
</linearGradient>
<linearGradient id="paint1_linear_38_9984" x1="12" y1="2" x2="12" y2="22" gradientUnits="userSpaceOnUse">
<stop stop-color="#5924ED"/>
<stop offset="1" stop-color="#E28EFF"/>
</linearGradient>
<clipPath id="clip0_38_9984">
<rect width="24" height="24" fill="white"/>
</clipPath>
<clipPath id="clip1_38_9984">
<rect width="10.5" height="22" fill="white" transform="translate(16.2754 -2.59375) rotate(60)"/>
</clipPath>
<clipPath id="clip2_38_9984">
<rect width="10.5" height="22" fill="white" transform="matrix(-0.5 0.866025 0.866025 0.5 7.75 -2.59375)"/>
</clipPath>
</defs>
</svg>
