<svg width="770" height="286" viewBox="0 0 770 286" fill="none" xmlns="http://www.w3.org/2000/svg">
<path fill-rule="evenodd" clip-rule="evenodd" d="M767.271 46.9758C767.035 47.5481 766.781 48.1186 766.511 48.687H766.466L702.687 183.977H646.175L663.942 145.663H642.601C633.157 158.349 620.738 168.519 606.438 175.275C591.432 182.348 575.017 185.923 558.429 185.731C537.144 185.731 522.894 180.668 515.682 170.544C508.469 160.419 509.053 146.314 517.435 128.226L521.538 119.392C529.476 101.805 542.572 87.0467 559.091 77.0745C576.25 66.8067 595.94 61.546 615.934 61.8877C632.764 61.8877 645.27 65.1964 653.454 71.8137C661.637 78.431 664.946 87.8166 663.38 99.9703H685.316L709.976 48.687H542.624L450.932 244.989H450.899L442.886 262.244C436.19 276.661 421.738 285.884 405.842 285.884H226.771L260.685 212.763H316.932L302.87 243.136H395.55L486.377 48.687H486.268L491.568 37.5738L495.665 28.8018H495.751L498.368 23.3125C505.146 9.1005 519.489 0.0498047 535.234 0.0498047H735.801C759.617 0.0498047 775.681 23.7055 767.856 45.4604C767.695 45.9682 767.5 46.474 767.271 46.9758ZM637.142 203.994L642.204 193.076H698.451L666.407 262.243C659.719 276.678 645.257 285.917 629.348 285.917H450.832L493.845 193.043H550.489L545.426 203.961L637.142 203.994ZM615.471 250.58L620.665 239.364H529.016L523.821 250.547L615.471 250.58ZM601.045 116.414C601.767 115.293 602.22 114.019 602.369 112.694C602.518 111.368 602.359 110.026 601.905 108.771C600.912 106.985 598.596 106.091 595.288 106.091C592.121 106.081 589.022 107.014 586.387 108.771C583.562 110.646 581.344 113.301 580.002 116.414L573.153 131.171C572.453 132.28 572.03 133.542 571.921 134.849C571.812 136.157 572.018 137.471 572.524 138.682C573.211 139.722 574.178 140.548 575.314 141.063C576.449 141.578 577.707 141.762 578.943 141.593C582.208 141.644 585.405 140.66 588.075 138.781C590.781 136.885 592.92 134.289 594.262 131.27L601.045 116.414ZM436.44 103.114L454.241 64.7999L323.417 64.7008L277.246 164.093H105.873L110.803 153.505H259.957L301.15 64.7341H121.224C105.325 64.7341 90.8707 73.9607 84.1771 88.3822L76.9555 103.942H226.043L221.246 114.265H72.0918L30.7667 203.3H263.034L263.065 203.234H363.856C379.735 203.234 394.174 194.031 400.879 179.638L408.383 163.53H334.104L339.298 152.314H410.732L428.532 114H357.264L362.161 103.114H436.44ZM137.768 256.073H218.301L237.822 213.888H19.782L0.327148 256.073H80.9258L67.0957 285.851H123.938L137.768 256.073Z" fill="white"/>
</svg>
