<svg width="335" height="48" viewBox="0 0 335 48" fill="none" xmlns="http://www.w3.org/2000/svg">
<rect width="335" height="48" rx="8" fill="#E8E8E9"/>
<path d="M142.383 18.625V19.8594H137.461V26.6875C139.805 26.6797 141.422 26.5938 143.258 26.2344L143.43 27.4531C141.414 27.8281 139.711 27.9219 137.07 27.9219H135.961V18.625H142.383ZM146.961 17.3281V31.3594H145.477V23.5625H141.586V22.3281H145.477V17.3281H146.961ZM161.914 28.3594V29.5938H149.102V28.3594H154.742V25.4844H150.57V18.2812H152.055V20.6875H158.93V18.2812H160.398V25.4844H156.211V28.3594H161.914ZM152.055 24.2812H158.93V21.8906H152.055V24.2812ZM174.57 17.3281V31.3281H173.07V17.3281H174.57ZM170.398 18.8281C170.398 22.9219 168.648 26.4844 163.852 28.7812L163.07 27.5781C166.797 25.8047 168.609 23.2812 168.898 20.0156H163.742V18.8281H170.398Z" fill="#1A1C25"/>
<path d="M195.5 21.5L190.5 26.5L185.5 21.5" stroke="#1A1C25" stroke-width="1.5" stroke-linecap="round" stroke-linejoin="round"/>
</svg>
