<svg width="335" height="56" viewBox="0 0 335 56" fill="none" xmlns="http://www.w3.org/2000/svg">
<g opacity="0.3">
<rect width="335" height="56" rx="12" fill="#5924ED"/>
<path d="M151.266 21.3281V26.75H153.516V27.9688H151.266V35.3594H149.781V21.3281H151.266ZM147.5 22.6719V23.875H142.438V30.6406C144.789 30.6328 146.555 30.5312 148.547 30.1719L148.734 31.4219C146.547 31.8125 144.688 31.8906 142.078 31.875H140.953V22.6719H147.5ZM160.562 21.625C163.641 21.625 165.562 22.625 165.562 24.3125C165.562 25.9688 163.641 26.9531 160.562 26.9531C157.5 26.9531 155.562 25.9688 155.562 24.3125C155.562 22.625 157.5 21.625 160.562 21.625ZM160.562 22.7969C158.406 22.7969 157.078 23.3438 157.094 24.3125C157.078 25.25 158.406 25.7812 160.562 25.7969C162.703 25.7812 164.031 25.25 164.031 24.3125C164.031 23.3438 162.703 22.7969 160.562 22.7969ZM165.391 30.4844V35.1562H155.719V30.4844H165.391ZM157.188 31.6719V33.9531H163.953V31.6719H157.188ZM166.953 28.0312V29.2344H154.188V28.0312H166.953ZM174.391 22.1719C177.328 22.1719 179.562 23.7188 179.562 26.0781C179.562 28.4375 177.328 30 174.391 29.9844C171.453 30 169.234 28.4375 169.234 26.0781C169.234 23.7188 171.453 22.1719 174.391 22.1719ZM174.391 23.375C172.25 23.3594 170.641 24.4531 170.656 26.0781C170.641 27.7188 172.25 28.7656 174.391 28.7656C176.531 28.7656 178.125 27.7188 178.125 26.0781C178.125 24.4531 176.531 23.3594 174.391 23.375ZM180.828 32.2812V33.5156H168.016V32.2812H180.828ZM194.656 32.4062V33.6562H181.844V32.4062H187.484V29.9531H183.406V25.5H191.625V23.5312H183.375V22.3125H193.094V26.6875H184.875V28.7344H193.422V29.9531H188.953V32.4062H194.656Z" fill="white"/>
</g>
</svg>
