<svg width="335" height="56" viewBox="0 0 335 56" fill="none" xmlns="http://www.w3.org/2000/svg">
<rect width="335" height="56" rx="12" fill="#5924ED"/>
<path d="M151.594 21.1562V26.375H153.625V28.2031H151.594V35.5312H149.344V21.1562H151.594ZM147.5 22.4688V24.2812H143.016V30.2344C144.945 30.2188 146.609 30.1016 148.422 29.7969L148.656 31.6719C146.453 32.0469 144.469 32.0938 142 32.0938H140.766V22.4688H147.5ZM160.578 21.4062C163.797 21.4062 165.828 22.4844 165.844 24.25C165.828 26 163.797 27.0625 160.578 27.0469C157.391 27.0625 155.312 26 155.312 24.25C155.312 22.4844 157.391 21.4062 160.578 21.4062ZM160.578 23.1562C158.688 23.1406 157.641 23.5 157.656 24.25C157.641 24.9688 158.688 25.3125 160.578 25.3125C162.453 25.3125 163.516 24.9688 163.516 24.25C163.516 23.5 162.453 23.1406 160.578 23.1562ZM165.562 30.4062V35.3438H155.547V30.4062H165.562ZM157.75 32.1719V33.5469H163.375V32.1719H157.75ZM167.125 27.75V29.5312H154.047V27.75H167.125ZM174.406 21.8281C177.453 21.8281 179.859 23.5 179.859 26C179.859 28.5469 177.453 30.2031 174.406 30.2031C171.375 30.2031 168.984 28.5469 168.984 26C168.984 23.5 171.375 21.8281 174.406 21.8281ZM174.406 23.6562C172.516 23.6406 171.172 24.5312 171.172 26C171.172 27.5156 172.516 28.3594 174.406 28.3594C176.281 28.3594 177.625 27.5156 177.625 26C177.625 24.5312 176.281 23.6406 174.406 23.6562ZM180.984 32V33.8125H167.875V32H180.984ZM194.812 32.125V33.9531H181.703V32.125H187.125V30.125H183.172V25.1875H191.125V23.8438H183.156V22.0469H193.344V26.9375H185.422V28.3125H193.672V30.125H189.344V32.125H194.812Z" fill="white"/>
</svg>
