<svg width="303" height="86" viewBox="0 0 303 86" fill="none" xmlns="http://www.w3.org/2000/svg">
<rect width="303" height="86" rx="8" fill="#F5F5F5"/>
<path d="M98.3125 29.9648C99.8477 29.9648 100.926 30.8086 100.938 32.0625C100.926 33.1289 100.117 33.9141 98.8984 34.1016V35.0273C99.8301 34.9805 100.762 34.8984 101.629 34.7695L101.711 35.5898C99.5078 35.9883 97.0352 36.0234 95.2305 36.0234L95.1133 35.1211C95.8984 35.127 96.8184 35.1211 97.7852 35.0859V34.1133C96.5312 33.9375 95.6875 33.1465 95.6992 32.0625C95.6875 30.8086 96.7773 29.9648 98.3125 29.9648ZM98.3125 30.8203C97.3867 30.8203 96.7305 31.3008 96.7422 32.0625C96.7305 32.8008 97.3867 33.293 98.3125 33.293C99.25 33.293 99.8828 32.8008 99.8828 32.0625C99.8828 31.3008 99.25 30.8203 98.3125 30.8203ZM103.387 29.5078V32.9766H104.887V33.9141H103.387V37.5352H102.273V29.5078H103.387ZM103.762 38.8594V39.7734H96.6016V36.832H97.7148V38.8594H103.762ZM115.105 37.8047V38.7422H105.496V37.8047H108.121V35.9531H106.668V32.6133H112.832V31.1484H106.645V30.2344H113.934V33.5156H107.77V35.0391H114.18V35.9531H112.586V37.8047H115.105ZM109.199 37.8047H111.496V35.9531H109.199V37.8047ZM121.984 32.8594V33.7617H119.934V35.0859C120.865 35.0449 121.791 34.9805 122.652 34.8867L122.734 35.707C120.496 36.0117 118.035 36.0703 116.066 36.0703L115.914 35.1797C116.811 35.1738 117.812 35.1621 118.832 35.1328V33.7617H116.852V30.1641H121.891V31.0664H117.965V32.8594H121.984ZM124.574 29.4961V37.3711H123.461V29.4961H124.574ZM124.902 38.8711V39.7734H117.648V36.8086H118.762V38.8711H124.902ZM132.344 31.5352C132.344 32.5312 133.141 33.5508 134.453 33.9961L133.973 34.8164C132.947 34.4766 132.221 33.7969 131.84 32.9766C131.453 33.8672 130.732 34.6289 129.707 35.0156L129.191 34.1719C130.504 33.668 131.289 32.5664 131.289 31.5352V31.5H129.461V30.6211H131.289V29.543H132.344V30.6211H134.148V31.5H132.344V31.5352ZM138.121 29.5078V35.0859H137.066V32.7188H135.871V35.0039H134.805V29.6953H135.871V31.8164H137.066V29.5078H138.121ZM138.121 35.5195V38.0508H132.203V39.0234H138.52V39.8672H131.102V37.2305H137.031V36.3633H131.078V35.5195H138.121ZM148.234 29.5078V37.2305H147.133V29.5078H148.234ZM148.527 38.8711V39.7734H141.297V36.6211H142.41V38.8711H148.527ZM144.895 30.2344V33.3633H141.18V34.875C143.113 34.8691 144.426 34.8047 145.984 34.5234L146.102 35.4375C144.449 35.7305 143.055 35.7891 140.969 35.7891H140.09V32.5195H143.793V31.125H140.066V30.2344H144.895ZM153.777 32.5898C153.777 34.3477 154.926 36.1641 156.543 36.8555L155.934 37.7227C154.697 37.1777 153.713 36.0234 153.227 34.6172C152.74 36.1172 151.75 37.3945 150.531 37.9922L149.887 37.1133C151.469 36.375 152.641 34.3945 152.652 32.5898V31.4766H150.25V30.5508H156.168V31.4766H153.777V32.5898ZM158.605 29.4961V39.9961H157.492V29.4961H158.605ZM168.461 29.4961V33.6797H170.09V34.6055H168.461V39.9844H167.348V29.4961H168.461ZM165.719 30.5977C165.707 33.6328 164.371 36.3398 160.914 38.0508L160.293 37.1836C162.924 35.8711 164.354 33.9727 164.582 31.5234H160.82V30.5977H165.719ZM175.82 35.6484V36.8672H177.461V35.6484H178.492V39.8672H174.777V35.6484H175.82ZM175.82 39H177.461V37.7109H175.82V39ZM181.539 36.4336C181.539 37.5352 182.148 38.6484 183.449 39.1055L182.875 39.9492C181.926 39.5859 181.311 38.9004 180.988 38.0625C180.637 38.8828 180.016 39.5742 179.113 39.9492L178.551 39.1055C179.816 38.5898 180.438 37.4766 180.438 36.4336V35.5781H181.539V36.4336ZM176.488 29.9414C177.871 29.9414 178.938 30.7266 179.172 31.8984H181.223V29.4961H182.336V35.0625H181.223V32.8125H179.184C178.955 34.0195 177.883 34.8047 176.488 34.8047C174.883 34.8047 173.734 33.8203 173.734 32.3672C173.734 30.9375 174.883 29.9414 176.488 29.9414ZM176.488 30.8672C175.492 30.8672 174.801 31.4766 174.801 32.3672C174.801 33.2695 175.492 33.8906 176.488 33.9023C177.461 33.8906 178.152 33.2695 178.152 32.3672C178.152 31.4766 177.461 30.8672 176.488 30.8672ZM186.801 30.2812C188.225 30.2812 189.268 31.4883 189.438 33.4336H191.605V29.4961H192.707V40.0195H191.605V34.3359H189.449C189.326 36.3809 188.26 37.6523 186.801 37.6523C185.23 37.6523 184.129 36.2227 184.141 33.9609C184.129 31.7109 185.23 30.2812 186.801 30.2812ZM186.801 31.2773C185.852 31.2773 185.195 32.3086 185.195 33.9609C185.195 35.625 185.852 36.6562 186.801 36.6562C187.75 36.6562 188.406 35.625 188.406 33.9609C188.406 32.3086 187.75 31.2773 186.801 31.2773ZM203.934 37.7578V38.6836H194.324V37.7578H196.621V35.0156C195.76 34.541 195.238 33.7852 195.238 32.8477C195.238 31.1953 196.855 30.1055 199.105 30.1055C201.367 30.1055 202.984 31.1953 202.984 32.8477C202.984 33.7734 202.48 34.5176 201.637 34.9922V37.7578H203.934ZM199.105 30.9961C197.453 30.9961 196.316 31.7109 196.316 32.8477C196.316 33.9727 197.453 34.7109 199.105 34.7109C200.746 34.7109 201.906 33.9727 201.906 32.8477C201.906 31.7109 200.746 30.9961 199.105 30.9961ZM197.723 37.7578H200.512V35.4141C200.084 35.5254 199.609 35.5781 199.105 35.5781C198.613 35.5781 198.145 35.5254 197.723 35.4258V37.7578ZM205.891 39.082C205.434 39.082 205.047 38.707 205.059 38.25C205.047 37.793 205.434 37.418 205.891 37.418C206.336 37.418 206.723 37.793 206.723 38.25C206.723 38.707 206.336 39.082 205.891 39.082ZM73.8848 47.5352C73.8848 48.5312 74.6816 49.5508 75.9941 49.9961L75.5137 50.8164C74.4883 50.4766 73.7617 49.7969 73.3809 48.9766C72.9941 49.8672 72.2734 50.6289 71.248 51.0156L70.7324 50.1719C72.0449 49.668 72.8301 48.5664 72.8301 47.5352V47.5H71.002V46.6211H72.8301V45.543H73.8848V46.6211H75.6895V47.5H73.8848V47.5352ZM79.6621 45.5078V51.0859H78.6074V48.7188H77.4121V51.0039H76.3457V45.6953H77.4121V47.8164H78.6074V45.5078H79.6621ZM79.6621 51.5195V54.0508H73.7441V55.0234H80.0605V55.8672H72.6426V53.2305H78.5723V52.3633H72.6191V51.5195H79.6621ZM89.7754 45.5078V53.2305H88.6738V45.5078H89.7754ZM90.0684 54.8711V55.7734H82.8379V52.6211H83.9512V54.8711H90.0684ZM86.4355 46.2344V49.3633H82.7207V50.875C84.6543 50.8691 85.9668 50.8047 87.5254 50.5234L87.6426 51.4375C85.9902 51.7305 84.5957 51.7891 82.5098 51.7891H81.6309V48.5195H85.334V47.125H81.6074V46.2344H86.4355ZM95.3184 48.5898C95.3184 50.3477 96.4668 52.1641 98.084 52.8555L97.4746 53.7227C96.2383 53.1777 95.2539 52.0234 94.7676 50.6172C94.2812 52.1172 93.291 53.3945 92.0723 53.9922L91.4277 53.1133C93.0098 52.375 94.1816 50.3945 94.1934 48.5898V47.4766H91.791V46.5508H97.709V47.4766H95.3184V48.5898ZM100.146 45.4961V55.9961H99.0332V45.4961H100.146ZM111.42 50.3125V51.168H101.811V50.3125H111.42ZM110.236 51.9062V54.2148H104.072V55.082H110.564V55.8672H102.959V53.4766H109.135V52.7031H102.947V51.9062H110.236ZM110.213 45.7656V48.0391H104.143V48.8359H110.389V49.6211H103.041V47.3008H109.1V46.5508H103.018V45.7656H110.213ZM118.85 47.0664C118.85 48.543 119.799 49.8555 121.393 50.3711L120.783 51.2383C119.629 50.8223 118.779 50.0137 118.322 48.9648C117.865 50.166 116.951 51.0977 115.686 51.5547L115.088 50.6641C116.764 50.0898 117.736 48.6953 117.748 47.1133V46.082H118.85V47.0664ZM123.877 45.4961V51.6953H122.764V48.543H120.549V47.6289H122.764V45.4961H123.877ZM120.361 51.9883C122.564 51.9883 123.912 52.7148 123.912 53.9922C123.912 55.2578 122.564 55.9844 120.361 55.9727C118.158 55.9844 116.799 55.2578 116.811 53.9922C116.799 52.7148 118.158 51.9883 120.361 51.9883ZM120.361 52.8555C118.826 52.8555 117.912 53.2656 117.912 53.9922C117.912 54.6953 118.826 55.0938 120.361 55.0938C121.896 55.0938 122.811 54.6953 122.811 53.9922C122.811 53.2656 121.896 52.8555 120.361 52.8555ZM130.229 52.0938C132.502 52.0938 133.932 52.8086 133.943 54.0391C133.932 55.2578 132.502 55.9844 130.229 55.9727C127.979 55.9844 126.537 55.2578 126.537 54.0391C126.537 52.8086 127.979 52.0938 130.229 52.0938ZM130.229 52.9375C128.635 52.9375 127.639 53.3477 127.65 54.0391C127.639 54.7188 128.635 55.1172 130.229 55.1172C131.834 55.1172 132.83 54.7188 132.842 54.0391C132.83 53.3477 131.834 52.9375 130.229 52.9375ZM133.861 46.0117V46.8906C133.861 47.7344 133.861 48.6016 133.568 49.6797L132.479 49.5625C132.76 48.4902 132.76 47.7168 132.76 46.9023H126.619V46.0117H133.861ZM135.057 50.3242V51.2266H125.506V50.3242H129.338V48.3555H130.428V50.3242H135.057ZM139.627 47.3594C139.627 48.6836 140.576 49.9844 142.158 50.5234L141.584 51.3906C140.406 50.9805 139.533 50.1426 139.076 49.1055C138.619 50.2598 137.699 51.1855 136.451 51.625L135.877 50.7461C137.494 50.1953 138.49 48.7891 138.49 47.3711V47.0781H136.217V46.1758H141.877V47.0781H139.627V47.3594ZM144.619 52.3047V55.9961H143.506V53.207H137.506V52.3047H144.619ZM144.619 45.4961V51.7773H143.506V49.082H141.561V48.168H143.506V45.4961H144.619ZM151.018 46.1289C153.221 46.1289 154.896 47.2891 154.896 49.0586C154.896 50.8281 153.221 52 151.018 51.9883C148.814 52 147.15 50.8281 147.15 49.0586C147.15 47.2891 148.814 46.1289 151.018 46.1289ZM151.018 47.0312C149.412 47.0195 148.205 47.8398 148.217 49.0586C148.205 50.2891 149.412 51.0742 151.018 51.0742C152.623 51.0742 153.818 50.2891 153.818 49.0586C153.818 47.8398 152.623 47.0195 151.018 47.0312ZM155.846 53.7109V54.6367H146.236V53.7109H155.846ZM166.217 53.8047V54.7422H156.607V53.8047H160.838V51.9648H157.779V48.625H163.943V47.1484H157.756V46.2344H165.045V49.5156H158.881V51.0508H165.291V51.9648H161.939V53.8047H166.217ZM173.096 45.9648C174.631 45.9648 175.709 46.8086 175.721 48.0625C175.709 49.1289 174.9 49.9141 173.682 50.1016V51.0273C174.613 50.9805 175.545 50.8984 176.412 50.7695L176.494 51.5898C174.291 51.9883 171.818 52.0234 170.014 52.0234L169.896 51.1211C170.682 51.127 171.602 51.1211 172.568 51.0859V50.1133C171.314 49.9375 170.471 49.1465 170.482 48.0625C170.471 46.8086 171.561 45.9648 173.096 45.9648ZM173.096 46.8203C172.17 46.8203 171.514 47.3008 171.525 48.0625C171.514 48.8008 172.17 49.293 173.096 49.293C174.033 49.293 174.666 48.8008 174.666 48.0625C174.666 47.3008 174.033 46.8203 173.096 46.8203ZM178.17 45.5078V48.9766H179.67V49.9141H178.17V53.5352H177.057V45.5078H178.17ZM178.545 54.8594V55.7734H171.385V52.832H172.498V54.8594H178.545ZM189.889 53.8047V54.7422H180.279V53.8047H182.904V51.9531H181.451V48.6133H187.615V47.1484H181.428V46.2344H188.717V49.5156H182.553V51.0391H188.963V51.9531H187.369V53.8047H189.889ZM183.982 53.8047H186.279V51.9531H183.982V53.8047ZM195.842 47.2305V48.1328H190.627V47.2305H192.689V45.8008H193.791V47.2305H195.842ZM193.24 48.7656C194.576 48.7656 195.514 49.7617 195.525 51.1797C195.514 52.6094 194.576 53.6172 193.24 53.6172C191.928 53.6172 190.955 52.6094 190.967 51.1797C190.955 49.7617 191.928 48.7656 193.24 48.7656ZM193.24 49.6914C192.479 49.6914 191.951 50.3125 191.951 51.1797C191.951 52.0703 192.479 52.668 193.24 52.668C193.99 52.668 194.541 52.0703 194.541 51.1797C194.541 50.3125 193.99 49.6914 193.24 49.6914ZM199.639 45.4961V55.9961H198.584V50.7812H197.377V55.5039H196.322V45.7305H197.377V49.8672H198.584V45.4961H199.639ZM213.561 53.7695V54.6953H203.951V53.7695H208.182V51.6133H205.053V46.2109H206.166V48.0156H211.322V46.2109H212.424V51.6133H209.283V53.7695H213.561ZM206.166 50.7109H211.322V48.918H206.166V50.7109ZM217.521 48.3672C217.521 50.043 218.225 51.8359 219.631 52.6914L219.01 53.5469C218.025 52.9551 217.357 51.9062 217.006 50.6875C216.613 52.0234 215.893 53.1602 214.873 53.7812L214.182 52.9492C215.67 52.0586 216.443 50.207 216.443 48.4141V46.457H217.521V48.3672ZM223.357 45.4961V55.9961H222.291V45.4961H223.357ZM221.178 45.6953V55.4805H220.123V50.1133H218.494V49.1875H220.123V45.6953H221.178ZM234.303 53.7578V54.6836H224.693V53.7578H226.99V51.0156C226.129 50.541 225.607 49.7852 225.607 48.8477C225.607 47.1953 227.225 46.1055 229.475 46.1055C231.736 46.1055 233.354 47.1953 233.354 48.8477C233.354 49.7734 232.85 50.5176 232.006 50.9922V53.7578H234.303ZM229.475 46.9961C227.822 46.9961 226.686 47.7109 226.686 48.8477C226.686 49.9727 227.822 50.7109 229.475 50.7109C231.115 50.7109 232.275 49.9727 232.275 48.8477C232.275 47.7109 231.115 46.9961 229.475 46.9961ZM228.092 53.7578H230.881V51.4141C230.453 51.5254 229.979 51.5781 229.475 51.5781C228.982 51.5781 228.514 51.5254 228.092 51.4258V53.7578Z" fill="#96979B"/>
</svg>
