<svg width="335" height="100" viewBox="0 0 335 100" fill="none" xmlns="http://www.w3.org/2000/svg">
<rect width="335" height="100" rx="8" fill="#B8B9BB"/>
<circle cx="167.5" cy="32" r="14" fill="#E8E8E9"/>
<path d="M167.5 26L167.5 38" stroke="#B8B9BB" stroke-width="2" stroke-linecap="round"/>
<path d="M173.5 32L161.5 32" stroke="#B8B9BB" stroke-width="2" stroke-linecap="round"/>
<path d="M113.312 54.9648C114.848 54.9648 115.926 55.8086 115.938 57.0625C115.926 58.1289 115.117 58.9141 113.898 59.1016V60.0273C114.83 59.9805 115.762 59.8984 116.629 59.7695L116.711 60.5898C114.508 60.9883 112.035 61.0234 110.23 61.0234L110.113 60.1211C110.898 60.127 111.818 60.1211 112.785 60.0859V59.1133C111.531 58.9375 110.688 58.1465 110.699 57.0625C110.688 55.8086 111.777 54.9648 113.312 54.9648ZM113.312 55.8203C112.387 55.8203 111.73 56.3008 111.742 57.0625C111.73 57.8008 112.387 58.293 113.312 58.293C114.25 58.293 114.883 57.8008 114.883 57.0625C114.883 56.3008 114.25 55.8203 113.312 55.8203ZM118.387 54.5078V57.9766H119.887V58.9141H118.387V62.5352H117.273V54.5078H118.387ZM118.762 63.8594V64.7734H111.602V61.832H112.715V63.8594H118.762ZM130.105 62.8047V63.7422H120.496V62.8047H123.121V60.9531H121.668V57.6133H127.832V56.1484H121.645V55.2344H128.934V58.5156H122.77V60.0391H129.18V60.9531H127.586V62.8047H130.105ZM124.199 62.8047H126.496V60.9531H124.199V62.8047ZM136.984 57.8594V58.7617H134.934V60.0859C135.865 60.0449 136.791 59.9805 137.652 59.8867L137.734 60.707C135.496 61.0117 133.035 61.0703 131.066 61.0703L130.914 60.1797C131.811 60.1738 132.812 60.1621 133.832 60.1328V58.7617H131.852V55.1641H136.891V56.0664H132.965V57.8594H136.984ZM139.574 54.4961V62.3711H138.461V54.4961H139.574ZM139.902 63.8711V64.7734H132.648V61.8086H133.762V63.8711H139.902ZM147.344 56.5352C147.344 57.5312 148.141 58.5508 149.453 58.9961L148.973 59.8164C147.947 59.4766 147.221 58.7969 146.84 57.9766C146.453 58.8672 145.732 59.6289 144.707 60.0156L144.191 59.1719C145.504 58.668 146.289 57.5664 146.289 56.5352V56.5H144.461V55.6211H146.289V54.543H147.344V55.6211H149.148V56.5H147.344V56.5352ZM153.121 54.5078V60.0859H152.066V57.7188H150.871V60.0039H149.805V54.6953H150.871V56.8164H152.066V54.5078H153.121ZM153.121 60.5195V63.0508H147.203V64.0234H153.52V64.8672H146.102V62.2305H152.031V61.3633H146.078V60.5195H153.121ZM163.234 54.5078V62.2305H162.133V54.5078H163.234ZM163.527 63.8711V64.7734H156.297V61.6211H157.41V63.8711H163.527ZM159.895 55.2344V58.3633H156.18V59.875C158.113 59.8691 159.426 59.8047 160.984 59.5234L161.102 60.4375C159.449 60.7305 158.055 60.7891 155.969 60.7891H155.09V57.5195H158.793V56.125H155.066V55.2344H159.895ZM168.777 57.5898C168.777 59.3477 169.926 61.1641 171.543 61.8555L170.934 62.7227C169.697 62.1777 168.713 61.0234 168.227 59.6172C167.74 61.1172 166.75 62.3945 165.531 62.9922L164.887 62.1133C166.469 61.375 167.641 59.3945 167.652 57.5898V56.4766H165.25V55.5508H171.168V56.4766H168.777V57.5898ZM173.605 54.4961V64.9961H172.492V54.4961H173.605ZM183.461 54.4961V58.6797H185.09V59.6055H183.461V64.9844H182.348V54.4961H183.461ZM180.719 55.5977C180.707 58.6328 179.371 61.3398 175.914 63.0508L175.293 62.1836C177.924 60.8711 179.354 58.9727 179.582 56.5234H175.82V55.5977H180.719ZM190.82 60.6484V61.8672H192.461V60.6484H193.492V64.8672H189.777V60.6484H190.82ZM190.82 64H192.461V62.7109H190.82V64ZM196.539 61.4336C196.539 62.5352 197.148 63.6484 198.449 64.1055L197.875 64.9492C196.926 64.5859 196.311 63.9004 195.988 63.0625C195.637 63.8828 195.016 64.5742 194.113 64.9492L193.551 64.1055C194.816 63.5898 195.438 62.4766 195.438 61.4336V60.5781H196.539V61.4336ZM191.488 54.9414C192.871 54.9414 193.938 55.7266 194.172 56.8984H196.223V54.4961H197.336V60.0625H196.223V57.8125H194.184C193.955 59.0195 192.883 59.8047 191.488 59.8047C189.883 59.8047 188.734 58.8203 188.734 57.3672C188.734 55.9375 189.883 54.9414 191.488 54.9414ZM191.488 55.8672C190.492 55.8672 189.801 56.4766 189.801 57.3672C189.801 58.2695 190.492 58.8906 191.488 58.9023C192.461 58.8906 193.152 58.2695 193.152 57.3672C193.152 56.4766 192.461 55.8672 191.488 55.8672ZM201.801 55.2812C203.225 55.2812 204.268 56.4883 204.438 58.4336H206.605V54.4961H207.707V65.0195H206.605V59.3359H204.449C204.326 61.3809 203.26 62.6523 201.801 62.6523C200.23 62.6523 199.129 61.2227 199.141 58.9609C199.129 56.7109 200.23 55.2812 201.801 55.2812ZM201.801 56.2773C200.852 56.2773 200.195 57.3086 200.195 58.9609C200.195 60.625 200.852 61.6562 201.801 61.6562C202.75 61.6562 203.406 60.625 203.406 58.9609C203.406 57.3086 202.75 56.2773 201.801 56.2773ZM218.934 62.7578V63.6836H209.324V62.7578H211.621V60.0156C210.76 59.541 210.238 58.7852 210.238 57.8477C210.238 56.1953 211.855 55.1055 214.105 55.1055C216.367 55.1055 217.984 56.1953 217.984 57.8477C217.984 58.7734 217.48 59.5176 216.637 59.9922V62.7578H218.934ZM214.105 55.9961C212.453 55.9961 211.316 56.7109 211.316 57.8477C211.316 58.9727 212.453 59.7109 214.105 59.7109C215.746 59.7109 216.906 58.9727 216.906 57.8477C216.906 56.7109 215.746 55.9961 214.105 55.9961ZM212.723 62.7578H215.512V60.4141C215.084 60.5254 214.609 60.5781 214.105 60.5781C213.613 60.5781 213.145 60.5254 212.723 60.4258V62.7578ZM220.891 64.082C220.434 64.082 220.047 63.707 220.059 63.25C220.047 62.793 220.434 62.418 220.891 62.418C221.336 62.418 221.723 62.793 221.723 63.25C221.723 63.707 221.336 64.082 220.891 64.082ZM114.537 70.4961V73.1562H116.049V74.0703H114.537V76.6953H113.412V70.4961H114.537ZM111.139 76.8945C113.283 76.8945 114.619 77.6445 114.619 78.9336C114.619 80.2227 113.283 80.9844 111.139 80.9727C108.971 80.9844 107.611 80.2227 107.611 78.9336C107.611 77.6445 108.971 76.8945 111.139 76.8945ZM111.139 77.7969C109.615 77.7852 108.701 78.207 108.713 78.9336C108.701 79.6602 109.615 80.082 111.139 80.082C112.627 80.082 113.541 79.6602 113.553 78.9336C113.541 78.207 112.627 77.7852 111.139 77.7969ZM111.408 71.2695V72.1719H107.822V75.0312C109.891 75.0254 111.057 74.9609 112.381 74.6914L112.486 75.5938C111.08 75.8867 109.826 75.9336 107.553 75.9336H106.721V71.2695H111.408ZM125.354 70.5078V78.1953H124.24V70.5078H125.354ZM125.67 79.8711V80.7734H118.486V77.4688H119.611V79.8711H125.67ZM120.467 72.125C120.455 73.6602 121.439 75.0664 123.057 75.6289L122.482 76.5195C121.27 76.0684 120.373 75.1777 119.904 74.0352C119.441 75.2539 118.533 76.2324 117.303 76.707L116.705 75.8281C118.357 75.2188 119.33 73.707 119.33 72.125V71.082H120.467V72.125ZM130.439 71.2461C132.104 71.2344 133.287 72.2656 133.299 73.7422C133.287 75.2188 132.104 76.25 130.439 76.25C128.787 76.25 127.568 75.2188 127.58 73.7422C127.568 72.2656 128.787 71.2344 130.439 71.2461ZM130.439 72.207C129.42 72.207 128.67 72.8164 128.682 73.7422C128.67 74.668 129.42 75.2773 130.439 75.2773C131.459 75.2773 132.209 74.668 132.209 73.7422C132.209 72.8164 131.459 72.207 130.439 72.207ZM135.701 70.4961V81.0195H134.588V70.4961H135.701ZM127.076 77.832C128.986 77.832 131.635 77.8086 133.932 77.4805L134.014 78.2891C131.635 78.7461 129.092 78.7578 127.217 78.7578L127.076 77.832ZM148.779 70.8828V73.7422H142.592V74.9492H149.002V75.8516H141.479V72.8867H147.643V71.7852H141.443V70.8828H148.779ZM149.916 76.8477V77.7383H145.65V81.0195H144.537V77.7383H140.307V76.8477H149.916ZM159.396 70.5078V78.2891H158.283V70.5078H159.396ZM159.713 79.8711V80.7734H152.529V77.5977H153.654V79.8711H159.713ZM156.338 71.3164V72.207H152.412V73.5195H156.045V74.3867H152.412V75.7344C154.516 75.7344 155.74 75.6992 157.158 75.4531L157.275 76.332C155.752 76.6016 154.451 76.6367 152.154 76.6484H151.287V71.3164H156.338ZM163.967 70.9766C165.35 70.9648 166.416 71.7676 166.65 72.9453H168.701V70.4961H169.814V76.1328H168.701V73.8594H166.662C166.434 75.0664 165.361 75.875 163.967 75.875C162.361 75.875 161.213 74.8672 161.213 73.4141C161.213 71.9844 162.361 70.9648 163.967 70.9766ZM163.967 71.9023C162.971 71.9023 162.279 72.5117 162.279 73.4141C162.279 74.3164 162.971 74.9375 163.967 74.9375C164.939 74.9375 165.631 74.3164 165.631 73.4141C165.631 72.5117 164.939 71.9023 163.967 71.9023ZM164.072 76.6367V77.8555H168.701V76.6367H169.814V80.8672H162.971V76.6367H164.072ZM164.072 79.9531H168.701V78.7344H164.072V79.9531ZM176.213 70.6719C178.58 70.6719 179.963 71.3047 179.963 72.4766C179.963 73.6484 178.58 74.293 176.213 74.293C173.846 74.293 172.463 73.6484 172.463 72.4766C172.463 71.3047 173.846 70.6719 176.213 70.6719ZM176.213 71.4922C174.537 71.4922 173.611 71.8555 173.623 72.4766C173.611 73.1211 174.537 73.4609 176.213 73.4609C177.889 73.4609 178.814 73.1211 178.814 72.4766C178.814 71.8555 177.889 71.4922 176.213 71.4922ZM181.006 74.9375V75.8281H171.432V74.9375H181.006ZM179.799 76.6367V79.0977H173.682V80.0352H180.092V80.8906H172.592V78.2891H178.697V77.4688H172.58V76.6367H179.799ZM194.307 75.5352V76.4258H184.732V75.5352H194.307ZM189.514 77.2227C191.775 77.2109 193.135 77.8906 193.135 79.1094C193.135 80.3281 191.775 80.9961 189.514 80.9961C187.229 80.9961 185.869 80.3281 185.869 79.1094C185.869 77.8906 187.229 77.2109 189.514 77.2227ZM189.514 78.0664C187.908 78.0664 186.994 78.4297 186.994 79.1094C186.994 79.7656 187.908 80.1289 189.514 80.1289C191.096 80.1289 192.021 79.7656 192.021 79.1094C192.021 78.4297 191.096 78.0664 189.514 78.0664ZM189.514 70.7422C191.811 70.7539 193.264 71.5156 193.264 72.7695C193.264 74.0234 191.811 74.7734 189.514 74.7734C187.217 74.7734 185.764 74.0234 185.764 72.7695C185.764 71.5156 187.217 70.7539 189.514 70.7422ZM189.514 71.6328C187.896 71.6328 186.9 72.043 186.912 72.7695C186.9 73.4961 187.896 73.9062 189.514 73.9062C191.119 73.9062 192.115 73.4961 192.115 72.7695C192.115 72.043 191.119 71.6328 189.514 71.6328ZM203.834 70.5078V78.4648H202.721V77.457H200.611V76.6719H202.721V70.5078H203.834ZM204.092 79.8711V80.7734H196.51V77.6914H197.611V79.8711H204.092ZM195.057 75.3008C197.002 75.2891 199.615 75.2656 201.854 74.9844L201.924 75.7812C201.027 75.9277 200.084 76.0273 199.158 76.0859V78.1367H198.045V76.1445C197.025 76.1914 196.047 76.1973 195.197 76.1914L195.057 75.3008ZM198.49 70.9062C200.025 70.9062 201.092 71.6445 201.092 72.7578C201.092 73.8711 200.025 74.5859 198.49 74.5859C196.932 74.5859 195.877 73.8711 195.877 72.7578C195.877 71.6445 196.932 70.9062 198.49 70.9062ZM198.49 71.7383C197.553 71.7266 196.92 72.125 196.932 72.7578C196.92 73.3789 197.553 73.7656 198.49 73.7656C199.393 73.7656 200.025 73.3789 200.037 72.7578C200.025 72.125 199.393 71.7266 198.49 71.7383ZM210.666 72.2305V73.1328H205.451V72.2305H207.514V70.8008H208.615V72.2305H210.666ZM208.064 73.7656C209.4 73.7656 210.338 74.7617 210.35 76.1797C210.338 77.6094 209.4 78.6172 208.064 78.6172C206.752 78.6172 205.779 77.6094 205.791 76.1797C205.779 74.7617 206.752 73.7656 208.064 73.7656ZM208.064 74.6914C207.303 74.6914 206.775 75.3125 206.775 76.1797C206.775 77.0703 207.303 77.668 208.064 77.668C208.814 77.668 209.365 77.0703 209.365 76.1797C209.365 75.3125 208.814 74.6914 208.064 74.6914ZM214.463 70.4961V80.9961H213.408V75.7812H212.201V80.5039H211.146V70.7305H212.201V74.8672H213.408V70.4961H214.463ZM225.455 78.7578V79.6836H215.846V78.7578H218.143V76.0156C217.281 75.541 216.76 74.7852 216.76 73.8477C216.76 72.1953 218.377 71.1055 220.627 71.1055C222.889 71.1055 224.506 72.1953 224.506 73.8477C224.506 74.7734 224.002 75.5176 223.158 75.9922V78.7578H225.455ZM220.627 71.9961C218.975 71.9961 217.838 72.7109 217.838 73.8477C217.838 74.9727 218.975 75.7109 220.627 75.7109C222.268 75.7109 223.428 74.9727 223.428 73.8477C223.428 72.7109 222.268 71.9961 220.627 71.9961ZM219.244 78.7578H222.033V76.4141C221.605 76.5254 221.131 76.5781 220.627 76.5781C220.135 76.5781 219.666 76.5254 219.244 76.4258V78.7578ZM228.15 71.5156L228.045 77.5508H226.885L226.779 71.5156H228.15ZM227.471 80.082C227.014 80.082 226.627 79.707 226.639 79.25C226.627 78.793 227.014 78.418 227.471 78.418C227.916 78.418 228.303 78.793 228.303 79.25C228.303 79.707 227.916 80.082 227.471 80.082Z" fill="#F2F4F6"/>
</svg>
