<svg width="335" height="100" viewBox="0 0 335 100" fill="none" xmlns="http://www.w3.org/2000/svg">
<rect width="335" height="100" rx="8" fill="white"/>
<circle cx="167.5" cy="32" r="14" fill="#F5F5F5"/>
<path d="M167.5 26L167.5 38" stroke="#B8B9BB" stroke-width="2" stroke-linecap="round"/>
<path d="M173.5 32L161.5 32" stroke="#B8B9BB" stroke-width="2" stroke-linecap="round"/>
<path d="M108.83 56.6875C108.83 58.0469 109.838 59.3242 111.455 59.8398L110.881 60.707C109.674 60.3086 108.76 59.4824 108.291 58.4336C107.816 59.5762 106.885 60.4785 105.631 60.918L105.057 60.0391C106.686 59.4883 107.693 58.1289 107.705 56.6875V56.2305H105.35V55.3281H111.139V56.2305H108.83V56.6875ZM113.646 54.5078V62.1719H112.533V54.5078H113.646ZM113.963 63.8711V64.7734H106.779V61.4453H107.904V63.8711H113.963ZM124.264 54.4961V61.1172H123.209V58.1875H121.99V60.7539H120.947V54.6953H121.99V57.2734H123.209V54.4961H124.264ZM120.561 55.6914V56.5703H115.252V55.6914H117.373V54.5781H118.475V55.6914H120.561ZM117.912 57.0625C119.248 57.0625 120.186 57.7773 120.186 58.8672C120.186 59.957 119.248 60.6719 117.912 60.6719C116.6 60.6719 115.662 59.957 115.662 58.8672C115.662 57.7773 116.6 57.0625 117.912 57.0625ZM117.912 57.8828C117.174 57.8828 116.658 58.2695 116.658 58.8672C116.658 59.4648 117.174 59.8633 117.912 59.8633C118.674 59.8633 119.178 59.4648 119.178 58.8672C119.178 58.2695 118.674 57.8828 117.912 57.8828ZM120.748 61.2695C122.975 61.2695 124.311 61.9375 124.322 63.1328C124.311 64.3047 122.975 64.9844 120.748 64.9727C118.521 64.9844 117.186 64.3047 117.197 63.1328C117.186 61.9375 118.521 61.2695 120.748 61.2695ZM120.748 62.125C119.189 62.125 118.287 62.4766 118.299 63.1328C118.287 63.7656 119.189 64.1289 120.748 64.1172C122.318 64.1289 123.197 63.7656 123.209 63.1328C123.197 62.4766 122.318 62.125 120.748 62.125ZM135.256 59.3594V60.2617H131.014V61.2695C132.941 61.375 134.084 62.0254 134.084 63.1211C134.084 64.3164 132.725 64.9844 130.463 64.9727C128.178 64.9844 126.818 64.3164 126.818 63.1211C126.818 62.0254 127.961 61.375 129.912 61.2695V60.2617H125.682V59.3594H135.256ZM130.463 62.1133C128.857 62.1133 127.943 62.4766 127.943 63.1211C127.943 63.7539 128.857 64.1289 130.463 64.1172C132.045 64.1289 132.971 63.7539 132.971 63.1211C132.971 62.4766 132.045 62.1133 130.463 62.1133ZM134.4 54.9766V55.8672H131.213C131.371 56.8809 132.848 57.7422 134.764 57.9297L134.365 58.8086C132.549 58.5977 131.043 57.8301 130.475 56.7109C129.889 57.8301 128.389 58.5977 126.572 58.8086L126.186 57.9297C128.072 57.7422 129.555 56.8809 129.713 55.8672H126.561V54.9766H134.4ZM144.76 54.5078V62.1367H143.646V54.5078H144.76ZM145.076 63.8711V64.7734H137.893V61.3633H139.018V63.8711H145.076ZM139.064 55.2109C140.646 55.2109 141.854 56.2891 141.854 57.8125C141.854 59.3594 140.646 60.4258 139.064 60.4258C137.482 60.4258 136.264 59.3594 136.264 57.8125C136.264 56.2891 137.482 55.2109 139.064 55.2109ZM139.064 56.1836C138.08 56.1836 137.354 56.8516 137.354 57.8125C137.354 58.7969 138.08 59.4531 139.064 59.4531C140.025 59.4531 140.764 58.7969 140.764 57.8125C140.764 56.8516 140.025 56.1836 139.064 56.1836ZM152.529 56.5352C152.529 57.5312 153.326 58.5508 154.639 58.9961L154.158 59.8164C153.133 59.4766 152.406 58.7969 152.025 57.9766C151.639 58.8672 150.918 59.6289 149.893 60.0156L149.377 59.1719C150.689 58.668 151.475 57.5664 151.475 56.5352V56.5H149.646V55.6211H151.475V54.543H152.529V55.6211H154.334V56.5H152.529V56.5352ZM158.307 54.5078V60.0859H157.252V57.7188H156.057V60.0039H154.99V54.6953H156.057V56.8164H157.252V54.5078H158.307ZM158.307 60.5195V63.0508H152.389V64.0234H158.705V64.8672H151.287V62.2305H157.217V61.3633H151.264V60.5195H158.307ZM168.42 54.5078V62.2305H167.318V54.5078H168.42ZM168.713 63.8711V64.7734H161.482V61.6211H162.596V63.8711H168.713ZM165.08 55.2344V58.3633H161.365V59.875C163.299 59.8691 164.611 59.8047 166.17 59.5234L166.287 60.4375C164.635 60.7305 163.24 60.7891 161.154 60.7891H160.275V57.5195H163.979V56.125H160.252V55.2344H165.08ZM173.963 57.5898C173.963 59.3477 175.111 61.1641 176.729 61.8555L176.119 62.7227C174.883 62.1777 173.898 61.0234 173.412 59.6172C172.926 61.1172 171.936 62.3945 170.717 62.9922L170.072 62.1133C171.654 61.375 172.826 59.3945 172.838 57.5898V56.4766H170.436V55.5508H176.354V56.4766H173.963V57.5898ZM178.791 54.4961V64.9961H177.678V54.4961H178.791ZM188.646 54.4961V58.6797H190.275V59.6055H188.646V64.9844H187.533V54.4961H188.646ZM185.904 55.5977C185.893 58.6328 184.557 61.3398 181.1 63.0508L180.479 62.1836C183.109 60.8711 184.539 58.9727 184.768 56.5234H181.006V55.5977H185.904ZM196.006 60.6484V61.8672H197.646V60.6484H198.678V64.8672H194.963V60.6484H196.006ZM196.006 64H197.646V62.7109H196.006V64ZM201.725 61.4336C201.725 62.5352 202.334 63.6484 203.635 64.1055L203.061 64.9492C202.111 64.5859 201.496 63.9004 201.174 63.0625C200.822 63.8828 200.201 64.5742 199.299 64.9492L198.736 64.1055C200.002 63.5898 200.623 62.4766 200.623 61.4336V60.5781H201.725V61.4336ZM196.674 54.9414C198.057 54.9414 199.123 55.7266 199.357 56.8984H201.408V54.4961H202.521V60.0625H201.408V57.8125H199.369C199.141 59.0195 198.068 59.8047 196.674 59.8047C195.068 59.8047 193.92 58.8203 193.92 57.3672C193.92 55.9375 195.068 54.9414 196.674 54.9414ZM196.674 55.8672C195.678 55.8672 194.986 56.4766 194.986 57.3672C194.986 58.2695 195.678 58.8906 196.674 58.9023C197.646 58.8906 198.338 58.2695 198.338 57.3672C198.338 56.4766 197.646 55.8672 196.674 55.8672ZM206.986 55.2812C208.41 55.2812 209.453 56.4883 209.623 58.4336H211.791V54.4961H212.893V65.0195H211.791V59.3359H209.635C209.512 61.3809 208.445 62.6523 206.986 62.6523C205.416 62.6523 204.314 61.2227 204.326 58.9609C204.314 56.7109 205.416 55.2812 206.986 55.2812ZM206.986 56.2773C206.037 56.2773 205.381 57.3086 205.381 58.9609C205.381 60.625 206.037 61.6562 206.986 61.6562C207.936 61.6562 208.592 60.625 208.592 58.9609C208.592 57.3086 207.936 56.2773 206.986 56.2773ZM224.119 62.7578V63.6836H214.51V62.7578H216.807V60.0156C215.945 59.541 215.424 58.7852 215.424 57.8477C215.424 56.1953 217.041 55.1055 219.291 55.1055C221.553 55.1055 223.17 56.1953 223.17 57.8477C223.17 58.7734 222.666 59.5176 221.822 59.9922V62.7578H224.119ZM219.291 55.9961C217.639 55.9961 216.502 56.7109 216.502 57.8477C216.502 58.9727 217.639 59.7109 219.291 59.7109C220.932 59.7109 222.092 58.9727 222.092 57.8477C222.092 56.7109 220.932 55.9961 219.291 55.9961ZM217.908 62.7578H220.697V60.4141C220.27 60.5254 219.795 60.5781 219.291 60.5781C218.799 60.5781 218.33 60.5254 217.908 60.4258V62.7578ZM226.076 64.082C225.619 64.082 225.232 63.707 225.244 63.25C225.232 62.793 225.619 62.418 226.076 62.418C226.521 62.418 226.908 62.793 226.908 63.25C226.908 63.707 226.521 64.082 226.076 64.082ZM116.277 72.5352C116.277 73.5312 117.074 74.5508 118.387 74.9961L117.906 75.8164C116.881 75.4766 116.154 74.7969 115.773 73.9766C115.387 74.8672 114.666 75.6289 113.641 76.0156L113.125 75.1719C114.438 74.668 115.223 73.5664 115.223 72.5352V72.5H113.395V71.6211H115.223V70.543H116.277V71.6211H118.082V72.5H116.277V72.5352ZM122.055 70.5078V76.0859H121V73.7188H119.805V76.0039H118.738V70.6953H119.805V72.8164H121V70.5078H122.055ZM122.055 76.5195V79.0508H116.137V80.0234H122.453V80.8672H115.035V78.2305H120.965V77.3633H115.012V76.5195H122.055ZM132.168 70.5078V78.2305H131.066V70.5078H132.168ZM132.461 79.8711V80.7734H125.23V77.6211H126.344V79.8711H132.461ZM128.828 71.2344V74.3633H125.113V75.875C127.047 75.8691 128.359 75.8047 129.918 75.5234L130.035 76.4375C128.383 76.7305 126.988 76.7891 124.902 76.7891H124.023V73.5195H127.727V72.125H124V71.2344H128.828ZM137.711 73.5898C137.711 75.3477 138.859 77.1641 140.477 77.8555L139.867 78.7227C138.631 78.1777 137.646 77.0234 137.16 75.6172C136.674 77.1172 135.684 78.3945 134.465 78.9922L133.82 78.1133C135.402 77.375 136.574 75.3945 136.586 73.5898V72.4766H134.184V71.5508H140.102V72.4766H137.711V73.5898ZM142.539 70.4961V80.9961H141.426V70.4961H142.539ZM153.812 75.3125V76.168H144.203V75.3125H153.812ZM152.629 76.9062V79.2148H146.465V80.082H152.957V80.8672H145.352V78.4766H151.527V77.7031H145.34V76.9062H152.629ZM152.605 70.7656V73.0391H146.535V73.8359H152.781V74.6211H145.434V72.3008H151.492V71.5508H145.41V70.7656H152.605ZM161.406 72.6875C161.406 74.0469 162.414 75.3242 164.031 75.8398L163.457 76.707C162.25 76.3086 161.336 75.4824 160.867 74.4336C160.393 75.5762 159.461 76.4785 158.207 76.918L157.633 76.0391C159.262 75.4883 160.27 74.1289 160.281 72.6875V72.2305H157.926V71.3281H163.715V72.2305H161.406V72.6875ZM166.223 70.5078V78.1719H165.109V70.5078H166.223ZM166.539 79.8711V80.7734H159.355V77.4453H160.48V79.8711H166.539ZM176.84 70.4961V77.1172H175.785V74.1875H174.566V76.7539H173.523V70.6953H174.566V73.2734H175.785V70.4961H176.84ZM173.137 71.6914V72.5703H167.828V71.6914H169.949V70.5781H171.051V71.6914H173.137ZM170.488 73.0625C171.824 73.0625 172.762 73.7773 172.762 74.8672C172.762 75.957 171.824 76.6719 170.488 76.6719C169.176 76.6719 168.238 75.957 168.238 74.8672C168.238 73.7773 169.176 73.0625 170.488 73.0625ZM170.488 73.8828C169.75 73.8828 169.234 74.2695 169.234 74.8672C169.234 75.4648 169.75 75.8633 170.488 75.8633C171.25 75.8633 171.754 75.4648 171.754 74.8672C171.754 74.2695 171.25 73.8828 170.488 73.8828ZM173.324 77.2695C175.551 77.2695 176.887 77.9375 176.898 79.1328C176.887 80.3047 175.551 80.9844 173.324 80.9727C171.098 80.9844 169.762 80.3047 169.773 79.1328C169.762 77.9375 171.098 77.2695 173.324 77.2695ZM173.324 78.125C171.766 78.125 170.863 78.4766 170.875 79.1328C170.863 79.7656 171.766 80.1289 173.324 80.1172C174.895 80.1289 175.773 79.7656 175.785 79.1328C175.773 78.4766 174.895 78.125 173.324 78.125ZM183.449 72.2305V73.1328H178.234V72.2305H180.297V70.8008H181.398V72.2305H183.449ZM180.848 73.7656C182.184 73.7656 183.121 74.7617 183.133 76.1797C183.121 77.6094 182.184 78.6172 180.848 78.6172C179.535 78.6172 178.562 77.6094 178.574 76.1797C178.562 74.7617 179.535 73.7656 180.848 73.7656ZM180.848 74.6914C180.086 74.6914 179.559 75.3125 179.559 76.1797C179.559 77.0703 180.086 77.668 180.848 77.668C181.598 77.668 182.148 77.0703 182.148 76.1797C182.148 75.3125 181.598 74.6914 180.848 74.6914ZM187.246 70.4961V80.9961H186.191V75.7812H184.984V80.5039H183.93V70.7305H184.984V74.8672H186.191V70.4961H187.246ZM201.168 78.7695V79.6953H191.559V78.7695H195.789V76.6133H192.66V71.2109H193.773V73.0156H198.93V71.2109H200.031V76.6133H196.891V78.7695H201.168ZM193.773 75.7109H198.93V73.918H193.773V75.7109ZM205.129 73.3672C205.129 75.043 205.832 76.8359 207.238 77.6914L206.617 78.5469C205.633 77.9551 204.965 76.9062 204.613 75.6875C204.221 77.0234 203.5 78.1602 202.48 78.7812L201.789 77.9492C203.277 77.0586 204.051 75.207 204.051 73.4141V71.457H205.129V73.3672ZM210.965 70.4961V80.9961H209.898V70.4961H210.965ZM208.785 70.6953V80.4805H207.73V75.1133H206.102V74.1875H207.73V70.6953H208.785ZM221.91 78.7578V79.6836H212.301V78.7578H214.598V76.0156C213.736 75.541 213.215 74.7852 213.215 73.8477C213.215 72.1953 214.832 71.1055 217.082 71.1055C219.344 71.1055 220.961 72.1953 220.961 73.8477C220.961 74.7734 220.457 75.5176 219.613 75.9922V78.7578H221.91ZM217.082 71.9961C215.43 71.9961 214.293 72.7109 214.293 73.8477C214.293 74.9727 215.43 75.7109 217.082 75.7109C218.723 75.7109 219.883 74.9727 219.883 73.8477C219.883 72.7109 218.723 71.9961 217.082 71.9961ZM215.699 78.7578H218.488V76.4141C218.061 76.5254 217.586 76.5781 217.082 76.5781C216.59 76.5781 216.121 76.5254 215.699 76.4258V78.7578Z" fill="#96979B"/>
</svg>
