<svg width="303" height="86" viewBox="0 0 303 86" fill="none" xmlns="http://www.w3.org/2000/svg">
<rect width="303" height="86" rx="8" fill="#F5F5F5"/>
<path d="M93.3301 31.6875C93.3301 33.0469 94.3379 34.3242 95.9551 34.8398L95.3809 35.707C94.1738 35.3086 93.2598 34.4824 92.791 33.4336C92.3164 34.5762 91.3848 35.4785 90.1309 35.918L89.5566 35.0391C91.1855 34.4883 92.1934 33.1289 92.2051 31.6875V31.2305H89.8496V30.3281H95.6387V31.2305H93.3301V31.6875ZM98.1465 29.5078V37.1719H97.0332V29.5078H98.1465ZM98.4629 38.8711V39.7734H91.2793V36.4453H92.4043V38.8711H98.4629ZM108.764 29.4961V36.1172H107.709V33.1875H106.49V35.7539H105.447V29.6953H106.49V32.2734H107.709V29.4961H108.764ZM105.061 30.6914V31.5703H99.752V30.6914H101.873V29.5781H102.975V30.6914H105.061ZM102.412 32.0625C103.748 32.0625 104.686 32.7773 104.686 33.8672C104.686 34.957 103.748 35.6719 102.412 35.6719C101.1 35.6719 100.162 34.957 100.162 33.8672C100.162 32.7773 101.1 32.0625 102.412 32.0625ZM102.412 32.8828C101.674 32.8828 101.158 33.2695 101.158 33.8672C101.158 34.4648 101.674 34.8633 102.412 34.8633C103.174 34.8633 103.678 34.4648 103.678 33.8672C103.678 33.2695 103.174 32.8828 102.412 32.8828ZM105.248 36.2695C107.475 36.2695 108.811 36.9375 108.822 38.1328C108.811 39.3047 107.475 39.9844 105.248 39.9727C103.021 39.9844 101.686 39.3047 101.697 38.1328C101.686 36.9375 103.021 36.2695 105.248 36.2695ZM105.248 37.125C103.689 37.125 102.787 37.4766 102.799 38.1328C102.787 38.7656 103.689 39.1289 105.248 39.1172C106.818 39.1289 107.697 38.7656 107.709 38.1328C107.697 37.4766 106.818 37.125 105.248 37.125ZM119.756 34.3594V35.2617H115.514V36.2695C117.441 36.375 118.584 37.0254 118.584 38.1211C118.584 39.3164 117.225 39.9844 114.963 39.9727C112.678 39.9844 111.318 39.3164 111.318 38.1211C111.318 37.0254 112.461 36.375 114.412 36.2695V35.2617H110.182V34.3594H119.756ZM114.963 37.1133C113.357 37.1133 112.443 37.4766 112.443 38.1211C112.443 38.7539 113.357 39.1289 114.963 39.1172C116.545 39.1289 117.471 38.7539 117.471 38.1211C117.471 37.4766 116.545 37.1133 114.963 37.1133ZM118.9 29.9766V30.8672H115.713C115.871 31.8809 117.348 32.7422 119.264 32.9297L118.865 33.8086C117.049 33.5977 115.543 32.8301 114.975 31.7109C114.389 32.8301 112.889 33.5977 111.072 33.8086L110.686 32.9297C112.572 32.7422 114.055 31.8809 114.213 30.8672H111.061V29.9766H118.9ZM129.26 29.5078V37.1367H128.146V29.5078H129.26ZM129.576 38.8711V39.7734H122.393V36.3633H123.518V38.8711H129.576ZM123.564 30.2109C125.146 30.2109 126.354 31.2891 126.354 32.8125C126.354 34.3594 125.146 35.4258 123.564 35.4258C121.982 35.4258 120.764 34.3594 120.764 32.8125C120.764 31.2891 121.982 30.2109 123.564 30.2109ZM123.564 31.1836C122.58 31.1836 121.854 31.8516 121.854 32.8125C121.854 33.7969 122.58 34.4531 123.564 34.4531C124.525 34.4531 125.264 33.7969 125.264 32.8125C125.264 31.8516 124.525 31.1836 123.564 31.1836ZM137.029 31.5352C137.029 32.5312 137.826 33.5508 139.139 33.9961L138.658 34.8164C137.633 34.4766 136.906 33.7969 136.525 32.9766C136.139 33.8672 135.418 34.6289 134.393 35.0156L133.877 34.1719C135.189 33.668 135.975 32.5664 135.975 31.5352V31.5H134.146V30.6211H135.975V29.543H137.029V30.6211H138.834V31.5H137.029V31.5352ZM142.807 29.5078V35.0859H141.752V32.7188H140.557V35.0039H139.49V29.6953H140.557V31.8164H141.752V29.5078H142.807ZM142.807 35.5195V38.0508H136.889V39.0234H143.205V39.8672H135.787V37.2305H141.717V36.3633H135.764V35.5195H142.807ZM152.92 29.5078V37.2305H151.818V29.5078H152.92ZM153.213 38.8711V39.7734H145.982V36.6211H147.096V38.8711H153.213ZM149.58 30.2344V33.3633H145.865V34.875C147.799 34.8691 149.111 34.8047 150.67 34.5234L150.787 35.4375C149.135 35.7305 147.74 35.7891 145.654 35.7891H144.775V32.5195H148.479V31.125H144.752V30.2344H149.58ZM158.463 32.5898C158.463 34.3477 159.611 36.1641 161.229 36.8555L160.619 37.7227C159.383 37.1777 158.398 36.0234 157.912 34.6172C157.426 36.1172 156.436 37.3945 155.217 37.9922L154.572 37.1133C156.154 36.375 157.326 34.3945 157.338 32.5898V31.4766H154.936V30.5508H160.854V31.4766H158.463V32.5898ZM163.291 29.4961V39.9961H162.178V29.4961H163.291ZM173.146 29.4961V33.6797H174.775V34.6055H173.146V39.9844H172.033V29.4961H173.146ZM170.404 30.5977C170.393 33.6328 169.057 36.3398 165.6 38.0508L164.979 37.1836C167.609 35.8711 169.039 33.9727 169.268 31.5234H165.506V30.5977H170.404ZM180.506 35.6484V36.8672H182.146V35.6484H183.178V39.8672H179.463V35.6484H180.506ZM180.506 39H182.146V37.7109H180.506V39ZM186.225 36.4336C186.225 37.5352 186.834 38.6484 188.135 39.1055L187.561 39.9492C186.611 39.5859 185.996 38.9004 185.674 38.0625C185.322 38.8828 184.701 39.5742 183.799 39.9492L183.236 39.1055C184.502 38.5898 185.123 37.4766 185.123 36.4336V35.5781H186.225V36.4336ZM181.174 29.9414C182.557 29.9414 183.623 30.7266 183.857 31.8984H185.908V29.4961H187.021V35.0625H185.908V32.8125H183.869C183.641 34.0195 182.568 34.8047 181.174 34.8047C179.568 34.8047 178.42 33.8203 178.42 32.3672C178.42 30.9375 179.568 29.9414 181.174 29.9414ZM181.174 30.8672C180.178 30.8672 179.486 31.4766 179.486 32.3672C179.486 33.2695 180.178 33.8906 181.174 33.9023C182.146 33.8906 182.838 33.2695 182.838 32.3672C182.838 31.4766 182.146 30.8672 181.174 30.8672ZM191.486 30.2812C192.91 30.2812 193.953 31.4883 194.123 33.4336H196.291V29.4961H197.393V40.0195H196.291V34.3359H194.135C194.012 36.3809 192.945 37.6523 191.486 37.6523C189.916 37.6523 188.814 36.2227 188.826 33.9609C188.814 31.7109 189.916 30.2812 191.486 30.2812ZM191.486 31.2773C190.537 31.2773 189.881 32.3086 189.881 33.9609C189.881 35.625 190.537 36.6562 191.486 36.6562C192.436 36.6562 193.092 35.625 193.092 33.9609C193.092 32.3086 192.436 31.2773 191.486 31.2773ZM208.619 37.7578V38.6836H199.01V37.7578H201.307V35.0156C200.445 34.541 199.924 33.7852 199.924 32.8477C199.924 31.1953 201.541 30.1055 203.791 30.1055C206.053 30.1055 207.67 31.1953 207.67 32.8477C207.67 33.7734 207.166 34.5176 206.322 34.9922V37.7578H208.619ZM203.791 30.9961C202.139 30.9961 201.002 31.7109 201.002 32.8477C201.002 33.9727 202.139 34.7109 203.791 34.7109C205.432 34.7109 206.592 33.9727 206.592 32.8477C206.592 31.7109 205.432 30.9961 203.791 30.9961ZM202.408 37.7578H205.197V35.4141C204.77 35.5254 204.295 35.5781 203.791 35.5781C203.299 35.5781 202.83 35.5254 202.408 35.4258V37.7578ZM210.576 39.082C210.119 39.082 209.732 38.707 209.744 38.25C209.732 37.793 210.119 37.418 210.576 37.418C211.021 37.418 211.408 37.793 211.408 38.25C211.408 38.707 211.021 39.082 210.576 39.082ZM100.777 47.5352C100.777 48.5312 101.574 49.5508 102.887 49.9961L102.406 50.8164C101.381 50.4766 100.654 49.7969 100.273 48.9766C99.8867 49.8672 99.166 50.6289 98.1406 51.0156L97.625 50.1719C98.9375 49.668 99.7227 48.5664 99.7227 47.5352V47.5H97.8945V46.6211H99.7227V45.543H100.777V46.6211H102.582V47.5H100.777V47.5352ZM106.555 45.5078V51.0859H105.5V48.7188H104.305V51.0039H103.238V45.6953H104.305V47.8164H105.5V45.5078H106.555ZM106.555 51.5195V54.0508H100.637V55.0234H106.953V55.8672H99.5352V53.2305H105.465V52.3633H99.5117V51.5195H106.555ZM116.668 45.5078V53.2305H115.566V45.5078H116.668ZM116.961 54.8711V55.7734H109.73V52.6211H110.844V54.8711H116.961ZM113.328 46.2344V49.3633H109.613V50.875C111.547 50.8691 112.859 50.8047 114.418 50.5234L114.535 51.4375C112.883 51.7305 111.488 51.7891 109.402 51.7891H108.523V48.5195H112.227V47.125H108.5V46.2344H113.328ZM122.211 48.5898C122.211 50.3477 123.359 52.1641 124.977 52.8555L124.367 53.7227C123.131 53.1777 122.146 52.0234 121.66 50.6172C121.174 52.1172 120.184 53.3945 118.965 53.9922L118.32 53.1133C119.902 52.375 121.074 50.3945 121.086 48.5898V47.4766H118.684V46.5508H124.602V47.4766H122.211V48.5898ZM127.039 45.4961V55.9961H125.926V45.4961H127.039ZM138.312 50.3125V51.168H128.703V50.3125H138.312ZM137.129 51.9062V54.2148H130.965V55.082H137.457V55.8672H129.852V53.4766H136.027V52.7031H129.84V51.9062H137.129ZM137.105 45.7656V48.0391H131.035V48.8359H137.281V49.6211H129.934V47.3008H135.992V46.5508H129.91V45.7656H137.105ZM145.906 47.6875C145.906 49.0469 146.914 50.3242 148.531 50.8398L147.957 51.707C146.75 51.3086 145.836 50.4824 145.367 49.4336C144.893 50.5762 143.961 51.4785 142.707 51.918L142.133 51.0391C143.762 50.4883 144.77 49.1289 144.781 47.6875V47.2305H142.426V46.3281H148.215V47.2305H145.906V47.6875ZM150.723 45.5078V53.1719H149.609V45.5078H150.723ZM151.039 54.8711V55.7734H143.855V52.4453H144.98V54.8711H151.039ZM161.34 45.4961V52.1172H160.285V49.1875H159.066V51.7539H158.023V45.6953H159.066V48.2734H160.285V45.4961H161.34ZM157.637 46.6914V47.5703H152.328V46.6914H154.449V45.5781H155.551V46.6914H157.637ZM154.988 48.0625C156.324 48.0625 157.262 48.7773 157.262 49.8672C157.262 50.957 156.324 51.6719 154.988 51.6719C153.676 51.6719 152.738 50.957 152.738 49.8672C152.738 48.7773 153.676 48.0625 154.988 48.0625ZM154.988 48.8828C154.25 48.8828 153.734 49.2695 153.734 49.8672C153.734 50.4648 154.25 50.8633 154.988 50.8633C155.75 50.8633 156.254 50.4648 156.254 49.8672C156.254 49.2695 155.75 48.8828 154.988 48.8828ZM157.824 52.2695C160.051 52.2695 161.387 52.9375 161.398 54.1328C161.387 55.3047 160.051 55.9844 157.824 55.9727C155.598 55.9844 154.262 55.3047 154.273 54.1328C154.262 52.9375 155.598 52.2695 157.824 52.2695ZM157.824 53.125C156.266 53.125 155.363 53.4766 155.375 54.1328C155.363 54.7656 156.266 55.1289 157.824 55.1172C159.395 55.1289 160.273 54.7656 160.285 54.1328C160.273 53.4766 159.395 53.125 157.824 53.125ZM167.949 47.2305V48.1328H162.734V47.2305H164.797V45.8008H165.898V47.2305H167.949ZM165.348 48.7656C166.684 48.7656 167.621 49.7617 167.633 51.1797C167.621 52.6094 166.684 53.6172 165.348 53.6172C164.035 53.6172 163.062 52.6094 163.074 51.1797C163.062 49.7617 164.035 48.7656 165.348 48.7656ZM165.348 49.6914C164.586 49.6914 164.059 50.3125 164.059 51.1797C164.059 52.0703 164.586 52.668 165.348 52.668C166.098 52.668 166.648 52.0703 166.648 51.1797C166.648 50.3125 166.098 49.6914 165.348 49.6914ZM171.746 45.4961V55.9961H170.691V50.7812H169.484V55.5039H168.43V45.7305H169.484V49.8672H170.691V45.4961H171.746ZM185.668 53.7695V54.6953H176.059V53.7695H180.289V51.6133H177.16V46.2109H178.273V48.0156H183.43V46.2109H184.531V51.6133H181.391V53.7695H185.668ZM178.273 50.7109H183.43V48.918H178.273V50.7109ZM189.629 48.3672C189.629 50.043 190.332 51.8359 191.738 52.6914L191.117 53.5469C190.133 52.9551 189.465 51.9062 189.113 50.6875C188.721 52.0234 188 53.1602 186.98 53.7812L186.289 52.9492C187.777 52.0586 188.551 50.207 188.551 48.4141V46.457H189.629V48.3672ZM195.465 45.4961V55.9961H194.398V45.4961H195.465ZM193.285 45.6953V55.4805H192.23V50.1133H190.602V49.1875H192.23V45.6953H193.285ZM206.41 53.7578V54.6836H196.801V53.7578H199.098V51.0156C198.236 50.541 197.715 49.7852 197.715 48.8477C197.715 47.1953 199.332 46.1055 201.582 46.1055C203.844 46.1055 205.461 47.1953 205.461 48.8477C205.461 49.7734 204.957 50.5176 204.113 50.9922V53.7578H206.41ZM201.582 46.9961C199.93 46.9961 198.793 47.7109 198.793 48.8477C198.793 49.9727 199.93 50.7109 201.582 50.7109C203.223 50.7109 204.383 49.9727 204.383 48.8477C204.383 47.7109 203.223 46.9961 201.582 46.9961ZM200.199 53.7578H202.988V51.4141C202.561 51.5254 202.086 51.5781 201.582 51.5781C201.09 51.5781 200.621 51.5254 200.199 51.4258V53.7578Z" fill="#96979B"/>
</svg>
