<svg width="303" height="86" viewBox="0 0 303 86" fill="none" xmlns="http://www.w3.org/2000/svg">
<rect width="303" height="86" rx="8" fill="#F5F5F5"/>
<path d="M86.6797 31.6875C86.6797 33.0469 87.6875 34.3242 89.3047 34.8398L88.7305 35.707C87.5234 35.3086 86.6094 34.4824 86.1406 33.4336C85.666 34.5762 84.7344 35.4785 83.4805 35.918L82.9062 35.0391C84.5352 34.4883 85.543 33.1289 85.5547 31.6875V31.2305H83.1992V30.3281H88.9883V31.2305H86.6797V31.6875ZM91.4961 29.5078V37.1719H90.3828V29.5078H91.4961ZM91.8125 38.8711V39.7734H84.6289V36.4453H85.7539V38.8711H91.8125ZM102.113 29.4961V36.1172H101.059V33.1875H99.8398V35.7539H98.7969V29.6953H99.8398V32.2734H101.059V29.4961H102.113ZM98.4102 30.6914V31.5703H93.1016V30.6914H95.2227V29.5781H96.3242V30.6914H98.4102ZM95.7617 32.0625C97.0977 32.0625 98.0352 32.7773 98.0352 33.8672C98.0352 34.957 97.0977 35.6719 95.7617 35.6719C94.4492 35.6719 93.5117 34.957 93.5117 33.8672C93.5117 32.7773 94.4492 32.0625 95.7617 32.0625ZM95.7617 32.8828C95.0234 32.8828 94.5078 33.2695 94.5078 33.8672C94.5078 34.4648 95.0234 34.8633 95.7617 34.8633C96.5234 34.8633 97.0273 34.4648 97.0273 33.8672C97.0273 33.2695 96.5234 32.8828 95.7617 32.8828ZM98.5977 36.2695C100.824 36.2695 102.16 36.9375 102.172 38.1328C102.16 39.3047 100.824 39.9844 98.5977 39.9727C96.3711 39.9844 95.0352 39.3047 95.0469 38.1328C95.0352 36.9375 96.3711 36.2695 98.5977 36.2695ZM98.5977 37.125C97.0391 37.125 96.1367 37.4766 96.1484 38.1328C96.1367 38.7656 97.0391 39.1289 98.5977 39.1172C100.168 39.1289 101.047 38.7656 101.059 38.1328C101.047 37.4766 100.168 37.125 98.5977 37.125ZM115.496 29.4961V39.9961H114.43V29.4961H115.496ZM113.387 29.6953V39.4805H112.332V36.0938H110.809C110.434 37.1367 109.736 37.7402 108.84 37.7344C107.469 37.7461 106.578 36.3047 106.578 34.0312C106.578 31.7578 107.469 30.3281 108.84 30.3398C109.736 30.334 110.428 30.9316 110.809 31.9688H112.332V29.6953H113.387ZM108.84 31.3828C108.066 31.3828 107.598 32.3555 107.598 34.0312C107.598 35.707 108.066 36.6797 108.84 36.6797C109.613 36.6797 110.105 35.707 110.105 34.0312C110.105 32.3555 109.613 31.3828 108.84 31.3828ZM111.043 32.8711C111.096 33.2285 111.125 33.6152 111.125 34.0312C111.125 34.4414 111.096 34.8281 111.043 35.1797H112.332V32.8711H111.043ZM125.586 29.4961V35.7422H124.473V33.082H122.516V32.168H124.473V29.4961H125.586ZM122.07 36.0352C124.273 36.0352 125.621 36.7617 125.621 38.0156C125.621 39.2695 124.273 39.9844 122.07 39.9961C119.867 39.9844 118.508 39.2695 118.52 38.0156C118.508 36.7617 119.867 36.0352 122.07 36.0352ZM122.07 36.9023C120.535 36.9023 119.621 37.3008 119.621 38.0156C119.621 38.7188 120.535 39.1289 122.07 39.1172C123.605 39.1289 124.52 38.7188 124.52 38.0156C124.52 37.3008 123.605 36.9023 122.07 36.9023ZM120.594 31.3477C120.594 32.6836 121.543 33.9727 123.125 34.5117L122.551 35.3906C121.373 34.9805 120.506 34.1426 120.055 33.1055C119.592 34.2832 118.672 35.2266 117.418 35.6836L116.832 34.793C118.461 34.2305 119.457 32.8125 119.457 31.3594V31.125H117.184V30.2227H122.844V31.125H120.594V31.3477ZM135.91 29.5078V37.1367H134.797V29.5078H135.91ZM136.227 38.8711V39.7734H129.043V36.3633H130.168V38.8711H136.227ZM130.215 30.2109C131.797 30.2109 133.004 31.2891 133.004 32.8125C133.004 34.3594 131.797 35.4258 130.215 35.4258C128.633 35.4258 127.414 34.3594 127.414 32.8125C127.414 31.2891 128.633 30.2109 130.215 30.2109ZM130.215 31.1836C129.23 31.1836 128.504 31.8516 128.504 32.8125C128.504 33.7969 129.23 34.4531 130.215 34.4531C131.176 34.4531 131.914 33.7969 131.914 32.8125C131.914 31.8516 131.176 31.1836 130.215 31.1836ZM143.68 31.5352C143.68 32.5312 144.477 33.5508 145.789 33.9961L145.309 34.8164C144.283 34.4766 143.557 33.7969 143.176 32.9766C142.789 33.8672 142.068 34.6289 141.043 35.0156L140.527 34.1719C141.84 33.668 142.625 32.5664 142.625 31.5352V31.5H140.797V30.6211H142.625V29.543H143.68V30.6211H145.484V31.5H143.68V31.5352ZM149.457 29.5078V35.0859H148.402V32.7188H147.207V35.0039H146.141V29.6953H147.207V31.8164H148.402V29.5078H149.457ZM149.457 35.5195V38.0508H143.539V39.0234H149.855V39.8672H142.438V37.2305H148.367V36.3633H142.414V35.5195H149.457ZM159.57 29.5078V37.2305H158.469V29.5078H159.57ZM159.863 38.8711V39.7734H152.633V36.6211H153.746V38.8711H159.863ZM156.23 30.2344V33.3633H152.516V34.875C154.449 34.8691 155.762 34.8047 157.32 34.5234L157.438 35.4375C155.785 35.7305 154.391 35.7891 152.305 35.7891H151.426V32.5195H155.129V31.125H151.402V30.2344H156.23ZM165.113 32.5898C165.113 34.3477 166.262 36.1641 167.879 36.8555L167.27 37.7227C166.033 37.1777 165.049 36.0234 164.562 34.6172C164.076 36.1172 163.086 37.3945 161.867 37.9922L161.223 37.1133C162.805 36.375 163.977 34.3945 163.988 32.5898V31.4766H161.586V30.5508H167.504V31.4766H165.113V32.5898ZM169.941 29.4961V39.9961H168.828V29.4961H169.941ZM179.797 29.4961V33.6797H181.426V34.6055H179.797V39.9844H178.684V29.4961H179.797ZM177.055 30.5977C177.043 33.6328 175.707 36.3398 172.25 38.0508L171.629 37.1836C174.26 35.8711 175.689 33.9727 175.918 31.5234H172.156V30.5977H177.055ZM187.156 35.6484V36.8672H188.797V35.6484H189.828V39.8672H186.113V35.6484H187.156ZM187.156 39H188.797V37.7109H187.156V39ZM192.875 36.4336C192.875 37.5352 193.484 38.6484 194.785 39.1055L194.211 39.9492C193.262 39.5859 192.646 38.9004 192.324 38.0625C191.973 38.8828 191.352 39.5742 190.449 39.9492L189.887 39.1055C191.152 38.5898 191.773 37.4766 191.773 36.4336V35.5781H192.875V36.4336ZM187.824 29.9414C189.207 29.9414 190.273 30.7266 190.508 31.8984H192.559V29.4961H193.672V35.0625H192.559V32.8125H190.52C190.291 34.0195 189.219 34.8047 187.824 34.8047C186.219 34.8047 185.07 33.8203 185.07 32.3672C185.07 30.9375 186.219 29.9414 187.824 29.9414ZM187.824 30.8672C186.828 30.8672 186.137 31.4766 186.137 32.3672C186.137 33.2695 186.828 33.8906 187.824 33.9023C188.797 33.8906 189.488 33.2695 189.488 32.3672C189.488 31.4766 188.797 30.8672 187.824 30.8672ZM198.137 30.2812C199.561 30.2812 200.604 31.4883 200.773 33.4336H202.941V29.4961H204.043V40.0195H202.941V34.3359H200.785C200.662 36.3809 199.596 37.6523 198.137 37.6523C196.566 37.6523 195.465 36.2227 195.477 33.9609C195.465 31.7109 196.566 30.2812 198.137 30.2812ZM198.137 31.2773C197.188 31.2773 196.531 32.3086 196.531 33.9609C196.531 35.625 197.188 36.6562 198.137 36.6562C199.086 36.6562 199.742 35.625 199.742 33.9609C199.742 32.3086 199.086 31.2773 198.137 31.2773ZM215.27 37.7578V38.6836H205.66V37.7578H207.957V35.0156C207.096 34.541 206.574 33.7852 206.574 32.8477C206.574 31.1953 208.191 30.1055 210.441 30.1055C212.703 30.1055 214.32 31.1953 214.32 32.8477C214.32 33.7734 213.816 34.5176 212.973 34.9922V37.7578H215.27ZM210.441 30.9961C208.789 30.9961 207.652 31.7109 207.652 32.8477C207.652 33.9727 208.789 34.7109 210.441 34.7109C212.082 34.7109 213.242 33.9727 213.242 32.8477C213.242 31.7109 212.082 30.9961 210.441 30.9961ZM209.059 37.7578H211.848V35.4141C211.42 35.5254 210.945 35.5781 210.441 35.5781C209.949 35.5781 209.48 35.5254 209.059 35.4258V37.7578ZM217.227 39.082C216.77 39.082 216.383 38.707 216.395 38.25C216.383 37.793 216.77 37.418 217.227 37.418C217.672 37.418 218.059 37.793 218.059 38.25C218.059 38.707 217.672 39.082 217.227 39.082ZM100.777 47.5352C100.777 48.5312 101.574 49.5508 102.887 49.9961L102.406 50.8164C101.381 50.4766 100.654 49.7969 100.273 48.9766C99.8867 49.8672 99.166 50.6289 98.1406 51.0156L97.625 50.1719C98.9375 49.668 99.7227 48.5664 99.7227 47.5352V47.5H97.8945V46.6211H99.7227V45.543H100.777V46.6211H102.582V47.5H100.777V47.5352ZM106.555 45.5078V51.0859H105.5V48.7188H104.305V51.0039H103.238V45.6953H104.305V47.8164H105.5V45.5078H106.555ZM106.555 51.5195V54.0508H100.637V55.0234H106.953V55.8672H99.5352V53.2305H105.465V52.3633H99.5117V51.5195H106.555ZM116.668 45.5078V53.2305H115.566V45.5078H116.668ZM116.961 54.8711V55.7734H109.73V52.6211H110.844V54.8711H116.961ZM113.328 46.2344V49.3633H109.613V50.875C111.547 50.8691 112.859 50.8047 114.418 50.5234L114.535 51.4375C112.883 51.7305 111.488 51.7891 109.402 51.7891H108.523V48.5195H112.227V47.125H108.5V46.2344H113.328ZM122.211 48.5898C122.211 50.3477 123.359 52.1641 124.977 52.8555L124.367 53.7227C123.131 53.1777 122.146 52.0234 121.66 50.6172C121.174 52.1172 120.184 53.3945 118.965 53.9922L118.32 53.1133C119.902 52.375 121.074 50.3945 121.086 48.5898V47.4766H118.684V46.5508H124.602V47.4766H122.211V48.5898ZM127.039 45.4961V55.9961H125.926V45.4961H127.039ZM138.312 50.3125V51.168H128.703V50.3125H138.312ZM137.129 51.9062V54.2148H130.965V55.082H137.457V55.8672H129.852V53.4766H136.027V52.7031H129.84V51.9062H137.129ZM137.105 45.7656V48.0391H131.035V48.8359H137.281V49.6211H129.934V47.3008H135.992V46.5508H129.91V45.7656H137.105ZM145.906 47.6875C145.906 49.0469 146.914 50.3242 148.531 50.8398L147.957 51.707C146.75 51.3086 145.836 50.4824 145.367 49.4336C144.893 50.5762 143.961 51.4785 142.707 51.918L142.133 51.0391C143.762 50.4883 144.77 49.1289 144.781 47.6875V47.2305H142.426V46.3281H148.215V47.2305H145.906V47.6875ZM150.723 45.5078V53.1719H149.609V45.5078H150.723ZM151.039 54.8711V55.7734H143.855V52.4453H144.98V54.8711H151.039ZM161.34 45.4961V52.1172H160.285V49.1875H159.066V51.7539H158.023V45.6953H159.066V48.2734H160.285V45.4961H161.34ZM157.637 46.6914V47.5703H152.328V46.6914H154.449V45.5781H155.551V46.6914H157.637ZM154.988 48.0625C156.324 48.0625 157.262 48.7773 157.262 49.8672C157.262 50.957 156.324 51.6719 154.988 51.6719C153.676 51.6719 152.738 50.957 152.738 49.8672C152.738 48.7773 153.676 48.0625 154.988 48.0625ZM154.988 48.8828C154.25 48.8828 153.734 49.2695 153.734 49.8672C153.734 50.4648 154.25 50.8633 154.988 50.8633C155.75 50.8633 156.254 50.4648 156.254 49.8672C156.254 49.2695 155.75 48.8828 154.988 48.8828ZM157.824 52.2695C160.051 52.2695 161.387 52.9375 161.398 54.1328C161.387 55.3047 160.051 55.9844 157.824 55.9727C155.598 55.9844 154.262 55.3047 154.273 54.1328C154.262 52.9375 155.598 52.2695 157.824 52.2695ZM157.824 53.125C156.266 53.125 155.363 53.4766 155.375 54.1328C155.363 54.7656 156.266 55.1289 157.824 55.1172C159.395 55.1289 160.273 54.7656 160.285 54.1328C160.273 53.4766 159.395 53.125 157.824 53.125ZM167.949 47.2305V48.1328H162.734V47.2305H164.797V45.8008H165.898V47.2305H167.949ZM165.348 48.7656C166.684 48.7656 167.621 49.7617 167.633 51.1797C167.621 52.6094 166.684 53.6172 165.348 53.6172C164.035 53.6172 163.062 52.6094 163.074 51.1797C163.062 49.7617 164.035 48.7656 165.348 48.7656ZM165.348 49.6914C164.586 49.6914 164.059 50.3125 164.059 51.1797C164.059 52.0703 164.586 52.668 165.348 52.668C166.098 52.668 166.648 52.0703 166.648 51.1797C166.648 50.3125 166.098 49.6914 165.348 49.6914ZM171.746 45.4961V55.9961H170.691V50.7812H169.484V55.5039H168.43V45.7305H169.484V49.8672H170.691V45.4961H171.746ZM185.668 53.7695V54.6953H176.059V53.7695H180.289V51.6133H177.16V46.2109H178.273V48.0156H183.43V46.2109H184.531V51.6133H181.391V53.7695H185.668ZM178.273 50.7109H183.43V48.918H178.273V50.7109ZM189.629 48.3672C189.629 50.043 190.332 51.8359 191.738 52.6914L191.117 53.5469C190.133 52.9551 189.465 51.9062 189.113 50.6875C188.721 52.0234 188 53.1602 186.98 53.7812L186.289 52.9492C187.777 52.0586 188.551 50.207 188.551 48.4141V46.457H189.629V48.3672ZM195.465 45.4961V55.9961H194.398V45.4961H195.465ZM193.285 45.6953V55.4805H192.23V50.1133H190.602V49.1875H192.23V45.6953H193.285ZM206.41 53.7578V54.6836H196.801V53.7578H199.098V51.0156C198.236 50.541 197.715 49.7852 197.715 48.8477C197.715 47.1953 199.332 46.1055 201.582 46.1055C203.844 46.1055 205.461 47.1953 205.461 48.8477C205.461 49.7734 204.957 50.5176 204.113 50.9922V53.7578H206.41ZM201.582 46.9961C199.93 46.9961 198.793 47.7109 198.793 48.8477C198.793 49.9727 199.93 50.7109 201.582 50.7109C203.223 50.7109 204.383 49.9727 204.383 48.8477C204.383 47.7109 203.223 46.9961 201.582 46.9961ZM200.199 53.7578H202.988V51.4141C202.561 51.5254 202.086 51.5781 201.582 51.5781C201.09 51.5781 200.621 51.5254 200.199 51.4258V53.7578Z" fill="#96979B"/>
</svg>
