<svg width="57" height="36" viewBox="0 0 57 36" fill="none" xmlns="http://www.w3.org/2000/svg">
<rect width="57" height="36" rx="8" fill="#EEE9FD"/>
<path d="M27.2695 11.7754V20.7441H25.3008V11.7754H27.2695ZM27.584 22.5352V24.1074H18.7656V19.8418H20.7617V22.5352H27.584ZM20.3652 12.5547C22.3066 12.5547 23.8379 13.8945 23.8379 15.7402C23.8379 17.627 22.3066 18.9531 20.3652 18.9531C18.4238 18.9531 16.8789 17.627 16.8926 15.7402C16.8789 13.8945 18.4238 12.5547 20.3652 12.5547ZM20.3652 14.2637C19.4766 14.25 18.8066 14.7969 18.8066 15.7402C18.8066 16.7246 19.4766 17.2441 20.3652 17.2441C21.2129 17.2441 21.8828 16.7246 21.8828 15.7402C21.8828 14.7969 21.2129 14.25 20.3652 14.2637ZM40.2715 17.4902V19.0625H28.8281V17.4902H40.2715ZM34.5293 19.6367C37.2637 19.6367 38.9043 20.498 38.9043 21.9746C38.9043 23.4785 37.2637 24.3262 34.5293 24.3125C31.7812 24.3262 30.1133 23.4785 30.1133 21.9746C30.1133 20.498 31.7812 19.6367 34.5293 19.6367ZM34.5293 21.1543C32.875 21.1543 32.1094 21.4004 32.123 21.9746C32.1094 22.5625 32.875 22.7949 34.5293 22.7949C36.1426 22.7949 36.9355 22.5625 36.9355 21.9746C36.9355 21.4004 36.1426 21.1543 34.5293 21.1543ZM39.2324 12.3223V13.8945H36.0195C36.3408 14.6328 37.4482 15.3916 39.834 15.5898L39.1504 17.1211C36.6963 16.9023 35.1855 16.0342 34.5293 14.8652C33.8799 16.0273 32.3828 16.9023 29.9355 17.1211L29.2793 15.5898C31.6104 15.3916 32.7246 14.6396 33.0664 13.8945H29.8672V12.3223H39.2324Z" fill="#5924ED"/>
</svg>
