<svg width="48" height="44" viewBox="0 0 48 44" fill="none" xmlns="http://www.w3.org/2000/svg">
<rect width="48" height="44" rx="8" fill="#EEE9FD"/>
<path d="M22.5986 24.7988H21.0742V15.8711H22.5986V24.7988ZM22.9473 27.9844H14.4229V26.7402H22.9473V27.9844ZM15.9541 27.2256H14.4229V23.8965H15.9541V27.2256ZM15.8652 16.6777C16.485 16.6777 17.0479 16.8122 17.5537 17.0811C18.0641 17.3454 18.4652 17.7122 18.7568 18.1816C19.0485 18.6465 19.1943 19.1729 19.1943 19.7607C19.1943 20.3623 19.0485 20.9001 18.7568 21.374C18.4652 21.8434 18.0664 22.2103 17.5605 22.4746C17.0547 22.7389 16.4896 22.8711 15.8652 22.8711C15.2409 22.8711 14.6758 22.7389 14.1699 22.4746C13.6686 22.2103 13.2699 21.8434 12.9736 21.374C12.682 20.9001 12.5361 20.3623 12.5361 19.7607C12.5361 19.1729 12.682 18.6465 12.9736 18.1816C13.2699 17.7122 13.6686 17.3454 14.1699 17.0811C14.6758 16.8122 15.2409 16.6777 15.8652 16.6777ZM15.8652 18.0107C15.5143 18.0107 15.1976 18.0837 14.915 18.2295C14.637 18.3708 14.4183 18.5758 14.2588 18.8447C14.0993 19.109 14.0195 19.4144 14.0195 19.7607C14.0195 20.1208 14.0993 20.4352 14.2588 20.7041C14.4183 20.973 14.637 21.1803 14.915 21.3262C15.1976 21.472 15.5143 21.5426 15.8652 21.5381C16.2116 21.5426 16.5238 21.472 16.8018 21.3262C17.0798 21.1803 17.2962 20.973 17.4512 20.7041C17.6107 20.4352 17.6904 20.1208 17.6904 19.7607C17.6904 19.4144 17.6107 19.109 17.4512 18.8447C17.2962 18.5758 17.0798 18.3708 16.8018 18.2295C16.5238 18.0837 16.2116 18.0107 15.8652 18.0107ZM35.6689 22.8438H24.417V21.6133H35.6689V22.8438ZM30.0293 23.6572C30.918 23.6572 31.6813 23.7484 32.3193 23.9307C32.9574 24.1084 33.4473 24.3682 33.7891 24.71C34.1354 25.0518 34.3086 25.4596 34.3086 25.9336C34.3086 26.4121 34.1377 26.82 33.7959 27.1572C33.4587 27.499 32.9688 27.7565 32.3262 27.9297C31.6836 28.1074 30.918 28.1963 30.0293 28.1963C29.1315 28.1963 28.3613 28.1074 27.7188 27.9297C27.0762 27.7565 26.5817 27.499 26.2354 27.1572C25.8936 26.82 25.7227 26.4121 25.7227 25.9336C25.7227 25.4596 25.8936 25.0518 26.2354 24.71C26.5817 24.3682 27.0762 24.1084 27.7188 23.9307C28.3659 23.7484 29.1361 23.6572 30.0293 23.6572ZM30.0293 24.8467C29.4277 24.8512 28.9219 24.8945 28.5117 24.9766C28.1061 25.054 27.7962 25.1748 27.582 25.3389C27.3724 25.4984 27.2699 25.6966 27.2744 25.9336C27.2699 26.1706 27.3724 26.3688 27.582 26.5283C27.7962 26.6878 28.1061 26.8086 28.5117 26.8906C28.9173 26.9681 29.4232 27.0068 30.0293 27.0068C30.6217 27.0068 31.1208 26.9681 31.5264 26.8906C31.9365 26.8086 32.2487 26.6878 32.4629 26.5283C32.6771 26.3688 32.7842 26.1706 32.7842 25.9336C32.7842 25.6966 32.6794 25.4984 32.4697 25.3389C32.2601 25.1748 31.9479 25.054 31.5332 24.9766C31.123 24.8945 30.6217 24.8512 30.0293 24.8467ZM30.3506 17.4023C30.3506 18.0312 30.1501 18.6032 29.749 19.1182C29.3525 19.6331 28.7852 20.0615 28.0469 20.4033C27.3086 20.7406 26.4495 20.9616 25.4697 21.0664L24.957 19.8633C25.7728 19.7858 26.4883 19.624 27.1035 19.3779C27.7188 19.1318 28.1882 18.8379 28.5117 18.4961C28.8398 18.1543 29.0039 17.7897 29.0039 17.4023V17.0605H30.3506V17.4023ZM31.0615 17.4023C31.0615 17.7852 31.2233 18.1497 31.5469 18.4961C31.875 18.8379 32.349 19.1318 32.9688 19.3779C33.5885 19.624 34.3132 19.7858 35.1426 19.8633L34.6025 21.0664C33.6227 20.9616 32.7637 20.7406 32.0254 20.4033C31.2871 20.0661 30.7152 19.64 30.3096 19.125C29.9085 18.61 29.7057 18.0358 29.7012 17.4023V17.0605H31.0615V17.4023ZM34.6572 17.6826H25.4355V16.4521H34.6572V17.6826Z" fill="#5924ED"/>
</svg>
